<?xml version="1.0" encoding="utf-8"?>
<!-- Generator: Adobe Illustrator 17.1.0, SVG Export Plug-In . SVG Version: 6.00 Build 0)  -->
<!DOCTYPE svg PUBLIC "-//W3C//DTD SVG 1.1//EN" "http://www.w3.org/Graphics/SVG/1.1/DTD/svg11.dtd">
<svg version="1.1" id="レイヤー_1" xmlns="http://www.w3.org/2000/svg" xmlns:xlink="http://www.w3.org/1999/xlink" x="0px"
	 y="0px" viewBox="0 0 36 36" enable-background="new 0 0 36 36" xml:space="preserve">
<g>
	<circle cx="18" cy="18" r="17.7"/>
	<g>
		
			<radialGradient id="SVGID_1_" cx="-191.001" cy="-865.3737" r="6.3146" gradientTransform="matrix(0.6998 0.7144 -0.7144 0.6998 -461.6192 766.7203)" gradientUnits="userSpaceOnUse">
			<stop  offset="0" style="stop-color:#FFFFFF"/>
			<stop  offset="0.1849" style="stop-color:#F8FDFB"/>
			<stop  offset="0.4483" style="stop-color:#E6F6F0"/>
			<stop  offset="0.7571" style="stop-color:#C7ECDE"/>
			<stop  offset="1" style="stop-color:#AAE2CD"/>
		</radialGradient>
		<path fill="url(#SVGID_1_)" d="M19,19.6c0.1-0.3,0.8-0.1,2.1,0.7c0.8,0.5,2.2,1.3,2.2,1.3s2.2-1.9,4.6-0.3
			c1.8,1.2,1.7,2.6,1.2,3.4c-0.5,0.8-1.4,1.2-2.8,0.1c0,0,2.7,2.4,1,4.5c-1.6,2.1-3.8,0.6-4.4-0.9c0,0,1,1.6-0.6,2.7
			c-1.5,1-2.9-0.9-3.2-1.9c-0.4-1.4,1-3.3,1-3.3s-0.6-0.9-1.3-1.8c-0.9-1.2-1.9-1.9-1.5-2.3c0.3-0.4,1.3,0.2,2.3,1
			c0,0-2.2-1.9-1.7-2.3c0.4-0.4,1.3,0.3,2.6,1.1C20.6,21.4,18.8,20.1,19,19.6z"/>
		<g>
			<linearGradient id="SVGID_2_" gradientUnits="userSpaceOnUse" x1="7.3684" y1="13.03" x2="24.2044" y2="13.03">
				<stop  offset="0" style="stop-color:#F8EFAB"/>
				<stop  offset="9.305060e-003" style="stop-color:#F8EFAC"/>
				<stop  offset="0.2967" style="stop-color:#FBF6D0"/>
				<stop  offset="0.5662" style="stop-color:#FDFBEA"/>
				<stop  offset="0.8084" style="stop-color:#FFFEFA"/>
				<stop  offset="1" style="stop-color:#FFFFFF"/>
			</linearGradient>
			<path fill="url(#SVGID_2_)" d="M18,10.7l-6.2-6.1L9.5,13l-2.2,8.5l8.4-2.3l8.4-2.3L18,10.7z M8.8,20.2l1.7-6.8l1.7-6.8l5,4.9
				l5,4.9l-6.8,1.9L8.8,20.2z"/>
			<linearGradient id="SVGID_3_" gradientUnits="userSpaceOnUse" x1="10.0621" y1="6.2588" x2="14.3056" y2="6.2588">
				<stop  offset="0" style="stop-color:#F8EFAB"/>
				<stop  offset="9.305060e-003" style="stop-color:#F8EFAC"/>
				<stop  offset="0.2967" style="stop-color:#FBF6D0"/>
				<stop  offset="0.5662" style="stop-color:#FDFBEA"/>
				<stop  offset="0.8084" style="stop-color:#FFFEFA"/>
				<stop  offset="1" style="stop-color:#FFFFFF"/>
			</linearGradient>
			<circle fill="url(#SVGID_3_)" cx="12.2" cy="6.3" r="2.1"/>
			<linearGradient id="SVGID_4_" gradientUnits="userSpaceOnUse" x1="6.4279" y1="19.9737" x2="10.671" y2="19.9737">
				<stop  offset="0" style="stop-color:#F8EFAB"/>
				<stop  offset="9.305060e-003" style="stop-color:#F8EFAC"/>
				<stop  offset="0.2967" style="stop-color:#FBF6D0"/>
				<stop  offset="0.5662" style="stop-color:#FDFBEA"/>
				<stop  offset="0.8084" style="stop-color:#FFFEFA"/>
				<stop  offset="1" style="stop-color:#FFFFFF"/>
			</linearGradient>
			<circle fill="url(#SVGID_4_)" cx="8.5" cy="20" r="2.1"/>
			<linearGradient id="SVGID_5_" gradientUnits="userSpaceOnUse" x1="20.1513" y1="16.1531" x2="24.3945" y2="16.1531">
				<stop  offset="0" style="stop-color:#F8EFAB"/>
				<stop  offset="9.305060e-003" style="stop-color:#F8EFAC"/>
				<stop  offset="0.2967" style="stop-color:#FBF6D0"/>
				<stop  offset="0.5662" style="stop-color:#FDFBEA"/>
				<stop  offset="0.8084" style="stop-color:#FFFEFA"/>
				<stop  offset="1" style="stop-color:#FFFFFF"/>
			</linearGradient>
			<circle fill="url(#SVGID_5_)" cx="22.3" cy="16.2" r="2.1"/>
			
				<linearGradient id="SVGID_6_" gradientUnits="userSpaceOnUse" x1="-64.4616" y1="194.9519" x2="-64.4616" y2="187.495" gradientTransform="matrix(0.9634 -0.2682 0.2682 0.9634 24.9609 -188.2091)">
				<stop  offset="0" style="stop-color:#0080C2"/>
				<stop  offset="5.219108e-002" style="stop-color:#0088C2"/>
				<stop  offset="0.502" style="stop-color:#00C8C4"/>
				<stop  offset="0.8301" style="stop-color:#00F0C6"/>
				<stop  offset="1" style="stop-color:#00FFC6"/>
			</linearGradient>
			<path fill="url(#SVGID_6_)" d="M18.9,15l-2.6-2.6l-2.6-2.6l0,0c-0.1-0.1-0.3-0.2-0.5-0.2c-0.2,0.1-0.3,0.2-0.4,0.4l0,0l-0.9,3.6
				L11,17.2c0,0.1-0.1,0.2,0,0.3c0.1,0.3,0.4,0.4,0.6,0.4l3.6-1l3.6-1c0.3-0.1,0.4-0.4,0.4-0.6C19.1,15.2,19,15.1,18.9,15z"/>
		</g>
	</g>
</g>
</svg>
