<?xml version="1.0" encoding="utf-8"?>
<!-- Generator: Adobe Illustrator 17.1.0, SVG Export Plug-In . SVG Version: 6.00 Build 0)  -->
<!DOCTYPE svg PUBLIC "-//W3C//DTD SVG 1.1//EN" "http://www.w3.org/Graphics/SVG/1.1/DTD/svg11.dtd">
<svg version="1.1" id="レイヤー_1" xmlns="http://www.w3.org/2000/svg" xmlns:xlink="http://www.w3.org/1999/xlink" x="0px"
	 y="0px" viewBox="0 0 36 36" enable-background="new 0 0 36 36" xml:space="preserve">
<g>
	<circle cx="18" cy="18" r="17.7"/>
	<g>
		<linearGradient id="SVGID_1_" gradientUnits="userSpaceOnUse" x1="18.0234" y1="29.794" x2="18.0234" y2="8.2809">
			<stop  offset="0" style="stop-color:#F8EFAB"/>
			<stop  offset="9.305060e-003" style="stop-color:#F8EFAC"/>
			<stop  offset="0.2967" style="stop-color:#FBF6D0"/>
			<stop  offset="0.5662" style="stop-color:#FDFBEA"/>
			<stop  offset="0.8084" style="stop-color:#FFFEFA"/>
			<stop  offset="1" style="stop-color:#FFFFFF"/>
		</linearGradient>
		<path fill="url(#SVGID_1_)" d="M29.9,18.5C31,11.7,24.6,8.3,18,8.3c-6.6,0-12.7,2.5-11.9,10.3c0.5,5.2,4.6,6.1,10.5,6.8l1.5,4.5
			l1.8-4.5C25.5,24.5,29.1,23.6,29.9,18.5z"/>
		<g>
			<linearGradient id="SVGID_2_" gradientUnits="userSpaceOnUse" x1="18.0311" y1="22.2686" x2="18.0311" y2="12.0833">
				<stop  offset="0" style="stop-color:#860D83"/>
				<stop  offset="9.512287e-002" style="stop-color:#9C1785"/>
				<stop  offset="0.2703" style="stop-color:#BF2688"/>
				<stop  offset="0.4483" style="stop-color:#DA328B"/>
				<stop  offset="0.628" style="stop-color:#EE3A8D"/>
				<stop  offset="0.8105" style="stop-color:#F93F8E"/>
				<stop  offset="1" style="stop-color:#FD418E"/>
			</linearGradient>
			<path fill="url(#SVGID_2_)" d="M16.3,19.3c-0.1-0.7-0.5-3.9-0.8-7.2c0.6,0,2.7-0.1,5,0c0,0.7-0.2,3.8-0.8,7.2
				C19.3,19.3,17.8,19.3,16.3,19.3z M16.4,22.3c0-0.3,0-1.2,0-1.9c0.5,0,1.9-0.1,3.4,0c0,0.3,0,1.2-0.1,1.9
				C19.2,22.3,17.8,22.3,16.4,22.3z"/>
		</g>
	</g>
</g>
</svg>
