<?xml version="1.0" encoding="utf-8"?>
<!-- Generator: Adobe Illustrator 17.1.0, SVG Export Plug-In . SVG Version: 6.00 Build 0)  -->
<!DOCTYPE svg PUBLIC "-//W3C//DTD SVG 1.1//EN" "http://www.w3.org/Graphics/SVG/1.1/DTD/svg11.dtd">
<svg version="1.1" id="レイヤー_1" xmlns="http://www.w3.org/2000/svg" xmlns:xlink="http://www.w3.org/1999/xlink" x="0px"
	 y="0px" viewBox="0 0 36 36" enable-background="new 0 0 36 36" xml:space="preserve">
<g>
	<circle cx="18" cy="18" r="17.7"/>
	<g>
		<linearGradient id="SVGID_1_" gradientUnits="userSpaceOnUse" x1="13.5737" y1="18.2814" x2="13.5737" y2="17.6229">
			<stop  offset="0" style="stop-color:#F8EFAB"/>
			<stop  offset="9.305060e-003" style="stop-color:#F8EFAC"/>
			<stop  offset="0.2967" style="stop-color:#FBF6D0"/>
			<stop  offset="0.5662" style="stop-color:#FDFBEA"/>
			<stop  offset="0.8084" style="stop-color:#FFFEFA"/>
			<stop  offset="1" style="stop-color:#FFFFFF"/>
		</linearGradient>
		<rect x="4.7" y="17.6" fill="url(#SVGID_1_)" width="17.8" height="0.7"/>
		<linearGradient id="SVGID_2_" gradientUnits="userSpaceOnUse" x1="13.0426" y1="24.0083" x2="13.0426" y2="12.164">
			<stop  offset="0" style="stop-color:#FA3A00"/>
			<stop  offset="0.1558" style="stop-color:#FB4700"/>
			<stop  offset="0.7151" style="stop-color:#FE7200"/>
			<stop  offset="1" style="stop-color:#FF8300"/>
		</linearGradient>
		<polygon fill="url(#SVGID_2_)" points="19,13.6 17.6,12.2 13,17.6 8.5,12.2 7.1,13.6 12.5,18.1 7.1,22.6 8.5,24 13,18.6 17.6,24 
			19,22.6 13.6,18.1 		"/>
		<g>
			<g>
				<linearGradient id="SVGID_3_" gradientUnits="userSpaceOnUse" x1="24.6238" y1="26.4716" x2="24.6238" y2="9.5284">
					<stop  offset="0" style="stop-color:#B61FD6"/>
					<stop  offset="0.4535" style="stop-color:#DD4AA3"/>
					<stop  offset="0.8066" style="stop-color:#F66682"/>
					<stop  offset="1" style="stop-color:#FF7176"/>
				</linearGradient>
				<path fill="url(#SVGID_3_)" d="M30.4,17.5c-1.4-1.4-3.8-8-5.7-8v0v0c-1.9,0-4.4,6.6-5.7,8c-0.8,0.8-1,1.1-0.9,1.5
					c0.3,0.7,1.5,1,2.3,1.3c0,0,0.2,2.8-0.1,3.8c-0.3,0.9-0.3,1.6,0.4,1.8c0.8,0.2,1.9-0.8,1.9-1.7c0,0-0.3,2.3,0.9,2.3
					c0.9,0,1.2-1.4,1.3-2.1v0v0c0.1,0.7,0.5,2.1,1.3,2.1c1.1,0,0.9-2.3,0.9-2.3c0,0.9,1.1,1.9,1.9,1.7c0.7-0.1,0.7-0.8,0.4-1.8
					c-0.3-0.9-0.1-3.8-0.1-3.8c0.8-0.3,2-0.6,2.3-1.3C31.4,18.7,31.2,18.3,30.4,17.5z"/>
				<linearGradient id="SVGID_4_" gradientUnits="userSpaceOnUse" x1="24.6241" y1="20.1438" x2="24.6241" y2="15.5464">
					<stop  offset="0" style="stop-color:#3D0022"/>
					<stop  offset="7.713217e-002" style="stop-color:#31001B"/>
					<stop  offset="0.2544" style="stop-color:#1B000F"/>
					<stop  offset="0.4498" style="stop-color:#0C0007"/>
					<stop  offset="0.6753" style="stop-color:#030002"/>
					<stop  offset="1" style="stop-color:#000000"/>
				</linearGradient>
				<path fill="url(#SVGID_4_)" d="M26.4,20.1c-1.1,0-1.2-0.4-1.7-0.4c-0.5,0-0.6,0.4-1.7,0.4c-1.2,0-2.1-1-2.1-2.3
					c0-1.2,0.8-2.4,2.5-2.3c0.8,0.1,1.1,0.4,1.4,0.4c0.3,0,0.5-0.3,1.4-0.4c1.7-0.1,2.5,1.1,2.5,2.3C28.5,19.1,27.5,20.1,26.4,20.1z
					"/>
				<linearGradient id="SVGID_5_" gradientUnits="userSpaceOnUse" x1="24.6236" y1="19.3781" x2="24.6236" y2="15.9213">
					<stop  offset="0" style="stop-color:#F8EFAB"/>
					<stop  offset="9.305060e-003" style="stop-color:#F8EFAC"/>
					<stop  offset="0.2967" style="stop-color:#FBF6D0"/>
					<stop  offset="0.5662" style="stop-color:#FDFBEA"/>
					<stop  offset="0.8084" style="stop-color:#FFFEFA"/>
					<stop  offset="1" style="stop-color:#FFFFFF"/>
				</linearGradient>
				<path fill="url(#SVGID_5_)" d="M26.2,15.9c-0.7,0-1.3,0.4-1.6,1c-0.3-0.6-0.9-1-1.6-1c-0.9,0-1.7,0.8-1.7,1.7
					c0,1,0.8,1.7,1.7,1.7c0.7,0,1.3-0.4,1.6-1c0.3,0.6,0.9,1,1.6,1c0.9,0,1.7-0.8,1.7-1.7C27.9,16.7,27.1,15.9,26.2,15.9z"/>
				<linearGradient id="SVGID_6_" gradientUnits="userSpaceOnUse" x1="23.2048" y1="18" x2="23.2048" y2="16.0783">
					<stop  offset="0" style="stop-color:#3D0022"/>
					<stop  offset="7.713217e-002" style="stop-color:#31001B"/>
					<stop  offset="0.2544" style="stop-color:#1B000F"/>
					<stop  offset="0.4498" style="stop-color:#0C0007"/>
					<stop  offset="0.6753" style="stop-color:#030002"/>
					<stop  offset="1" style="stop-color:#000000"/>
				</linearGradient>
				<ellipse fill="url(#SVGID_6_)" cx="23.2" cy="17" rx="1" ry="1"/>
				<linearGradient id="SVGID_7_" gradientUnits="userSpaceOnUse" x1="26.0434" y1="18" x2="26.0434" y2="16.0783">
					<stop  offset="0" style="stop-color:#3D0022"/>
					<stop  offset="7.713217e-002" style="stop-color:#31001B"/>
					<stop  offset="0.2544" style="stop-color:#1B000F"/>
					<stop  offset="0.4498" style="stop-color:#0C0007"/>
					<stop  offset="0.6753" style="stop-color:#030002"/>
					<stop  offset="1" style="stop-color:#000000"/>
				</linearGradient>
				<ellipse fill="url(#SVGID_7_)" cx="26" cy="17" rx="1" ry="1"/>
			</g>
		</g>
	</g>
</g>
</svg>
