<?xml version="1.0" encoding="utf-8"?>
<!-- Generator: Adobe Illustrator 17.1.0, SVG Export Plug-In . SVG Version: 6.00 Build 0)  -->
<!DOCTYPE svg PUBLIC "-//W3C//DTD SVG 1.1//EN" "http://www.w3.org/Graphics/SVG/1.1/DTD/svg11.dtd">
<svg version="1.1" id="レイヤー_1" xmlns="http://www.w3.org/2000/svg" xmlns:xlink="http://www.w3.org/1999/xlink" x="0px"
	 y="0px" viewBox="0 0 36 36" enable-background="new 0 0 36 36" xml:space="preserve">
<g>
	<circle cx="18" cy="18" r="17.7"/>
	<g>
		<linearGradient id="SVGID_1_" gradientUnits="userSpaceOnUse" x1="24.6801" y1="25.9642" x2="24.6801" y2="9.4599">
			<stop  offset="0" style="stop-color:#FA3A00"/>
			<stop  offset="0.2942" style="stop-color:#FC6B00"/>
			<stop  offset="0.8274" style="stop-color:#FFCC00"/>
		</linearGradient>
		<polygon fill="url(#SVGID_1_)" points="30.7,15.3 24.7,9.5 18.7,15.3 22.2,15.7 21,26 24.7,26 28.4,26 27.2,15.7 		"/>
		<g>
			<linearGradient id="SVGID_2_" gradientUnits="userSpaceOnUse" x1="12.4702" y1="27.3519" x2="12.4702" y2="9.3903">
				<stop  offset="0" style="stop-color:#80FC00"/>
				<stop  offset="0.353" style="stop-color:#B1F900"/>
				<stop  offset="0.789" style="stop-color:#E9F600"/>
				<stop  offset="1" style="stop-color:#FFF500"/>
			</linearGradient>
			<path fill="url(#SVGID_2_)" d="M18.6,17.9c-1.4-1.5-4.1-8.5-6.1-8.5v0v0c-2,0-4.7,7-6.1,8.5c-0.8,0.9-1.1,1.2-1,1.6
				c0.3,0.8,1.6,1.1,2.4,1.4c0,0,0.2,3-0.1,4c-0.3,1-0.3,1.7,0.4,1.9c0.8,0.2,2-0.9,2-1.8c0,0-0.3,2.5,0.9,2.5
				c0.9,0,1.3-1.5,1.4-2.2v0v0c0.1,0.7,0.5,2.2,1.4,2.2c1.2,0,0.9-2.5,0.9-2.5c0,1,1.2,2,2,1.8c0.7-0.1,0.7-0.9,0.4-1.9
				c-0.3-1-0.1-4-0.1-4c0.8-0.3,2.1-0.6,2.4-1.4C19.7,19.1,19.4,18.7,18.6,17.9z"/>
			<linearGradient id="SVGID_3_" gradientUnits="userSpaceOnUse" x1="12.4703" y1="20.6438" x2="12.4703" y2="15.77">
				<stop  offset="0" style="stop-color:#3B3D00"/>
				<stop  offset="7.713217e-002" style="stop-color:#2F3100"/>
				<stop  offset="0.2544" style="stop-color:#1A1B00"/>
				<stop  offset="0.4498" style="stop-color:#0C0C00"/>
				<stop  offset="0.6753" style="stop-color:#030300"/>
				<stop  offset="1" style="stop-color:#000000"/>
			</linearGradient>
			<path fill="url(#SVGID_3_)" d="M14.3,20.6c-1.2,0-1.3-0.5-1.8-0.5c-0.6,0-0.7,0.5-1.9,0.5c-1.2,0-2.3-1.1-2.3-2.5
				c0-1.3,0.9-2.6,2.6-2.4c0.9,0.1,1.1,0.4,1.5,0.4c0.3,0,0.6-0.4,1.5-0.4c1.8-0.1,2.6,1.1,2.6,2.4C16.6,19.5,15.6,20.6,14.3,20.6z"
				/>
			<linearGradient id="SVGID_4_" gradientUnits="userSpaceOnUse" x1="12.4703" y1="19.8322" x2="12.4703" y2="16.1675">
				<stop  offset="0" style="stop-color:#F8EFAB"/>
				<stop  offset="9.305060e-003" style="stop-color:#F8EFAC"/>
				<stop  offset="0.2967" style="stop-color:#FBF6D0"/>
				<stop  offset="0.5662" style="stop-color:#FDFBEA"/>
				<stop  offset="0.8084" style="stop-color:#FFFEFA"/>
				<stop  offset="1" style="stop-color:#FFFFFF"/>
			</linearGradient>
			<path fill="url(#SVGID_4_)" d="M14.1,16.2c-0.7,0-1.4,0.4-1.6,1c-0.3-0.6-0.9-1-1.6-1C9.8,16.2,9,17,9,18c0,1,0.8,1.8,1.8,1.8
				c0.7,0,1.4-0.4,1.6-1c0.3,0.6,0.9,1,1.6,1c1,0,1.8-0.8,1.8-1.8C15.9,17,15.1,16.2,14.1,16.2z"/>
			<linearGradient id="SVGID_5_" gradientUnits="userSpaceOnUse" x1="10.9658" y1="18.3716" x2="10.9658" y2="16.3343">
				<stop  offset="0" style="stop-color:#3B3D00"/>
				<stop  offset="7.713217e-002" style="stop-color:#2F3100"/>
				<stop  offset="0.2544" style="stop-color:#1A1B00"/>
				<stop  offset="0.4498" style="stop-color:#0C0C00"/>
				<stop  offset="0.6753" style="stop-color:#030300"/>
				<stop  offset="1" style="stop-color:#000000"/>
			</linearGradient>
			<ellipse fill="url(#SVGID_5_)" cx="11" cy="17.4" rx="1.1" ry="1"/>
			<linearGradient id="SVGID_6_" gradientUnits="userSpaceOnUse" x1="13.9747" y1="18.3716" x2="13.9747" y2="16.3343">
				<stop  offset="0" style="stop-color:#3B3D00"/>
				<stop  offset="7.713217e-002" style="stop-color:#2F3100"/>
				<stop  offset="0.2544" style="stop-color:#1A1B00"/>
				<stop  offset="0.4498" style="stop-color:#0C0C00"/>
				<stop  offset="0.6753" style="stop-color:#030300"/>
				<stop  offset="1" style="stop-color:#000000"/>
			</linearGradient>
			<ellipse fill="url(#SVGID_6_)" cx="14" cy="17.4" rx="1.1" ry="1"/>
		</g>
		<g>
			<linearGradient id="SVGID_7_" gradientUnits="userSpaceOnUse" x1="12.4703" y1="9.5669" x2="12.4703" y2="9.3903">
				<stop  offset="0" style="stop-color:#9AA800"/>
				<stop  offset="0.3036" style="stop-color:#AEBE00"/>
				<stop  offset="0.932" style="stop-color:#E1F600"/>
				<stop  offset="1" style="stop-color:#E7FC00"/>
			</linearGradient>
			<path fill="url(#SVGID_7_)" d="M11.9,9.6c0.2,0,0.4,0,0.6,0c0.2,0,0.4,0,0.6,0c-0.2-0.1-0.4-0.2-0.6-0.2v0v0
				C12.3,9.4,12.1,9.5,11.9,9.6z"/>
			<linearGradient id="SVGID_8_" gradientUnits="userSpaceOnUse" x1="12.4703" y1="12.2236" x2="12.4703" y2="10.6972">
				<stop  offset="0" style="stop-color:#9AA800"/>
				<stop  offset="0.3036" style="stop-color:#AEBE00"/>
				<stop  offset="0.932" style="stop-color:#E1F600"/>
				<stop  offset="1" style="stop-color:#E7FC00"/>
			</linearGradient>
			<path fill="url(#SVGID_8_)" d="M12.5,12.2c1,0,1.9-0.1,2.6-0.3c-0.3-0.5-0.6-0.9-0.8-1.2c-0.5,0.1-1.1,0.2-1.8,0.2
				c-0.7,0-1.3-0.1-1.8-0.2c-0.3,0.4-0.6,0.8-0.8,1.2C10.6,12.1,11.5,12.2,12.5,12.2z"/>
		</g>
		<linearGradient id="SVGID_9_" gradientUnits="userSpaceOnUse" x1="12.4703" y1="11.112" x2="12.4703" y2="7.6684">
			<stop  offset="0" style="stop-color:#FFFFFF"/>
			<stop  offset="0.1145" style="stop-color:#FDFFE9"/>
			<stop  offset="0.3529" style="stop-color:#F8FEB1"/>
			<stop  offset="0.6913" style="stop-color:#EFFD57"/>
			<stop  offset="1" style="stop-color:#E7FC00"/>
		</linearGradient>
		<path fill="url(#SVGID_9_)" d="M12.5,7.7c-2.6,0-4.8,0.8-4.8,1.7c0,1,2.1,1.7,4.8,1.7c2.6,0,4.8-0.8,4.8-1.7
			C17.2,8.4,15.1,7.7,12.5,7.7z M12.5,9.8c-1.4,0-2.6-0.3-2.6-0.7c0-0.4,1.2-0.7,2.6-0.7c1.4,0,2.6,0.3,2.6,0.7
			C15.1,9.5,13.9,9.8,12.5,9.8z"/>
	</g>
</g>
</svg>
