<?xml version="1.0" encoding="utf-8"?>
<!-- Generator: Adobe Illustrator 17.1.0, SVG Export Plug-In . SVG Version: 6.00 Build 0)  -->
<!DOCTYPE svg PUBLIC "-//W3C//DTD SVG 1.1//EN" "http://www.w3.org/Graphics/SVG/1.1/DTD/svg11.dtd">
<svg version="1.1" id="レイヤー_1" xmlns="http://www.w3.org/2000/svg" xmlns:xlink="http://www.w3.org/1999/xlink" x="0px"
	 y="0px" viewBox="0 0 36 36" enable-background="new 0 0 36 36" xml:space="preserve">
<g>
	<circle cx="18" cy="18" r="17.7"/>
	<g>
		<linearGradient id="SVGID_1_" gradientUnits="userSpaceOnUse" x1="10.6911" y1="18.3101" x2="13.1031" y2="7.6216">
			<stop  offset="0" style="stop-color:#000000"/>
			<stop  offset="0.3247" style="stop-color:#030300"/>
			<stop  offset="0.5502" style="stop-color:#0C0C00"/>
			<stop  offset="0.7456" style="stop-color:#1A1B00"/>
			<stop  offset="0.9229" style="stop-color:#2F3100"/>
			<stop  offset="1" style="stop-color:#3B3D00"/>
		</linearGradient>
		<polygon fill="url(#SVGID_1_)" points="11.8,16.8 7.7,17.6 6.2,13.8 8.2,9.6 13.7,7.8 16.3,9.3 16.6,9.4 17.5,12.5 13.9,17.2 		
			"/>
		
			<linearGradient id="SVGID_2_" gradientUnits="userSpaceOnUse" x1="41.3386" y1="-205.1927" x2="41.3386" y2="-228.3435" gradientTransform="matrix(0.9708 0.24 -0.24 0.9708 -75.5964 219.5705)">
			<stop  offset="0" style="stop-color:#F8EFAB"/>
			<stop  offset="9.305060e-003" style="stop-color:#F8EFAC"/>
			<stop  offset="0.2967" style="stop-color:#FBF6D0"/>
			<stop  offset="0.5662" style="stop-color:#FDFBEA"/>
			<stop  offset="0.8084" style="stop-color:#FFFEFA"/>
			<stop  offset="1" style="stop-color:#FFFFFF"/>
		</linearGradient>
		<path fill="url(#SVGID_2_)" d="M30,19.5c-0.4-1.8-1.8-3.7-4-4.3c-2.3-0.6-4.2,0.3-5.1,2.2c-0.3,0.8-0.4,1.6-0.5,2.4
			c-0.1,1.1-0.2,2.2-1,2.8c-2,1.6-3.5,2.1-4.6,2.4l0,0c-0.7-0.3-1.8-2.3-1.7-5.1c0-1.4,0.9-1.8,1.8-2.3c0.8-0.4,1.7-0.8,2.1-2
			c0.3-0.8,0.6-2.3,0.4-3.3c-0.1-0.5-0.4-0.8-0.6-0.8c-1-0.2-1.4,0.5-1.5,1.2c-0.1,0.7,0.1,1.6-1.4,1.9c-0.6,0.1-1.1,0.6-1.5,1
			c-0.7,0.6-1.4,1.3-2.8,1c-0.1,0-0.2-0.1-0.3-0.1c-2.1-0.7-2-2.1-1.8-2.7c0.3-1,0.8-1.2,1.6-1.1c0.3,0.1,1,0.5,1.2,0.9
			c0.3,0.4-0.1,0.6-0.4,0.3c-0.4-0.4-1.1-0.2-1.1,0.5c-0.1,0.6,0.4,0.9,0.8,1.1c0.5,0.3,1.4,0.4,2.5-0.6c0.4-0.4,0.8-1.2,0.5-2
			c-0.1-0.3-0.6-1-1.2-1.5c-0.3-0.2-0.5-0.5-0.5-0.7c0-0.1,0-0.1,0.1-0.2c0.1-0.1,0.4-0.1,0.6,0c0.4,0.2,0.9,0.7,1.3,1.1
			c0.4,0.5,0.7,1.5,0.4,2.2c0,0,0.2,0,0.3-0.1c0.4-0.3,0.4-0.5,0.5-0.8c0.2-1.4-0.6-2.4-1.2-2.9c-0.2-0.2-0.4-0.2-0.4-0.4
			c0-0.1,0.1-0.2,0.2-0.3c0.2-0.1,0.6,0,0.9,0.2c0.6,0.4,1.3,1.6,1.1,2.7c0.2,0.1,0.3,0,0.6-0.5c0.1-0.3,0.2-0.9,0-1.5
			c-0.1-0.4-0.6-1.1-1.1-1.5c-0.4-0.3,0.1-0.6,0.4-0.5c0.3,0.1,1,0.6,1.2,1.3c0.2,0.5,0.2,1.2,0.1,1.6c0.7,0,0.7-0.8,0.8-1.1
			c0.3-1.7-1.5-3.3-3.1-3.7c-2.1-0.5-3.2,0.4-4.2,1.5c-0.9,1.1-2.6,1.9-3.6,2.5c-1.6,1-1.4,2.9-1.2,4.3c0.2,1.8,1.5,4,4.7,4.7
			c0,0-0.1,1.9,0.5,4.8c0.6,2.8,1.1,5.4,3,5.9v0c0.5,0.1,1.4,0.3,2.9,0c3.8-0.8,6.9-1.9,11.9-5.8C29.2,23.1,30.4,21,30,19.5z"/>
		
			<linearGradient id="SVGID_3_" gradientUnits="userSpaceOnUse" x1="-72.0637" y1="253.114" x2="-72.0637" y2="248.9855" gradientTransform="matrix(0.9695 -0.245 0.245 0.9695 29.7879 -249.8283)">
			<stop  offset="0" style="stop-color:#FF3B6A"/>
			<stop  offset="0.2301" style="stop-color:#E83828"/>
			<stop  offset="0.3408" style="stop-color:#E83F2B"/>
			<stop  offset="0.5042" style="stop-color:#E75333"/>
			<stop  offset="0.7003" style="stop-color:#E57441"/>
			<stop  offset="0.9199" style="stop-color:#E3A153"/>
			<stop  offset="1" style="stop-color:#E2B35B"/>
		</linearGradient>
		<path fill="url(#SVGID_3_)" d="M19.7,9.9c0,0,1.1,2.5,1.9,3.4c0,0,1-0.3,1.6-0.5c0,0-0.5-2.2-1.2-3.8C22,8.9,20.1,9.5,19.7,9.9z"
			/>
		
			<linearGradient id="SVGID_4_" gradientUnits="userSpaceOnUse" x1="54.402" y1="-98.0993" x2="54.402" y2="-102.2284" gradientTransform="matrix(0.9937 0.1118 -0.1118 0.9937 -40.1898 103.985)">
			<stop  offset="0" style="stop-color:#FF3B6A"/>
			<stop  offset="0.2301" style="stop-color:#E83828"/>
			<stop  offset="0.3408" style="stop-color:#E83F2B"/>
			<stop  offset="0.5042" style="stop-color:#E75333"/>
			<stop  offset="0.7003" style="stop-color:#E57441"/>
			<stop  offset="0.9199" style="stop-color:#E3A153"/>
			<stop  offset="1" style="stop-color:#E2B35B"/>
		</linearGradient>
		<path fill="url(#SVGID_4_)" d="M23.9,8.7c0,0,0.2,2.7,0.6,3.8c0,0,1,0.1,1.7,0c0,0,0.4-2.2,0.2-4C26.4,8.6,24.5,8.4,23.9,8.7z"/>
		
			<linearGradient id="SVGID_5_" gradientUnits="userSpaceOnUse" x1="47.1875" y1="-479.9887" x2="47.1875" y2="-484.1179" gradientTransform="matrix(0.8859 0.4638 -0.4638 0.8859 -236.6734 416.2227)">
			<stop  offset="0" style="stop-color:#FF3B6A"/>
			<stop  offset="0.2301" style="stop-color:#E83828"/>
			<stop  offset="0.3408" style="stop-color:#E83F2B"/>
			<stop  offset="0.5042" style="stop-color:#E75333"/>
			<stop  offset="0.7003" style="stop-color:#E57441"/>
			<stop  offset="0.9199" style="stop-color:#E3A153"/>
			<stop  offset="1" style="stop-color:#E2B35B"/>
		</linearGradient>
		<path fill="url(#SVGID_5_)" d="M28.3,8.9c0,0-0.8,2.6-0.8,3.8c0,0,0.9,0.5,1.5,0.6c0,0,1.1-1.9,1.7-3.6
			C30.7,9.8,28.9,8.9,28.3,8.9z"/>
		
			<linearGradient id="SVGID_6_" gradientUnits="userSpaceOnUse" x1="51.7842" y1="-185.8123" x2="51.7842" y2="-192.5527" gradientTransform="matrix(0.9596 0.2165 -0.2129 0.9433 -78.6651 189.3495)">
			<stop  offset="0.4292" style="stop-color:#FA3A00"/>
			<stop  offset="0.5181" style="stop-color:#FB4700"/>
			<stop  offset="0.8374" style="stop-color:#FE7200"/>
			<stop  offset="1" style="stop-color:#FF8300"/>
		</linearGradient>
		<path fill="url(#SVGID_6_)" d="M8.4,20.6c-0.2-0.3,0.1-0.5,0.4-0.5c0.3,0,0.7,0.7,2.4,0.5c1.7-0.2,2.2-0.9,2.3-1.2
			c0.1-0.3,0.7-0.3,0.7,0.6c0,0.9-0.1,2.7,0.1,2.9c0.2,0.2,0,1.9-1.6,2.2c-1.6,0.3-2.8,0-3.3-0.6C9,24.1,9.1,21.8,8.4,20.6z"/>
		
			<linearGradient id="SVGID_7_" gradientUnits="userSpaceOnUse" x1="51.9918" y1="-185.8123" x2="51.9918" y2="-191.6358" gradientTransform="matrix(0.9596 0.2165 -0.2129 0.9433 -78.6651 189.3495)">
			<stop  offset="0" style="stop-color:#FFA000"/>
			<stop  offset="0.3704" style="stop-color:#FEB600"/>
			<stop  offset="1" style="stop-color:#FCE300"/>
		</linearGradient>
		<path fill="url(#SVGID_7_)" d="M14.3,23c-0.2-0.2-0.2-1.7-0.1-2.7c0,0,0,0,0,0c-0.1,0.3-0.7,1.1-2.9,1.2c-1.5,0.1-2.2-0.3-2.6-0.5
			c0.5,1.2,0.5,3,0.8,3.6c0.4,0.6,1.7,0.9,3.3,0.6C14.3,24.9,14.5,23.2,14.3,23z"/>
		<g>
			
				<linearGradient id="SVGID_8_" gradientUnits="userSpaceOnUse" x1="54.2315" y1="-191.3731" x2="54.2315" y2="-191.6358" gradientTransform="matrix(0.9596 0.2165 -0.2129 0.9433 -78.6651 189.3495)">
				<stop  offset="0.4292" style="stop-color:#FA3A00"/>
				<stop  offset="0.5181" style="stop-color:#FB4700"/>
				<stop  offset="0.8374" style="stop-color:#FE7200"/>
				<stop  offset="1" style="stop-color:#FF8300"/>
			</linearGradient>
			<path fill="url(#SVGID_8_)" d="M14.1,20.6c0-0.1,0-0.2,0-0.3c0,0,0,0,0,0C14.1,20.4,14.1,20.5,14.1,20.6z"/>
			
				<linearGradient id="SVGID_9_" gradientUnits="userSpaceOnUse" x1="52.6526" y1="-185.8123" x2="52.6526" y2="-188.9713" gradientTransform="matrix(0.9596 0.2165 -0.2129 0.9433 -78.6651 189.3495)">
				<stop  offset="0.4292" style="stop-color:#FA3A00"/>
				<stop  offset="0.5181" style="stop-color:#FB4700"/>
				<stop  offset="0.8374" style="stop-color:#FE7200"/>
				<stop  offset="1" style="stop-color:#FF8300"/>
			</linearGradient>
			<path fill="url(#SVGID_9_)" d="M14.3,23C14.3,23,14.3,23,14.3,23c-0.2,0.6-0.7,1.3-1.7,1.4c-1.4,0.3-2.6,0.1-3.3-0.3
				c0.1,0.2,0.1,0.4,0.2,0.5c0.4,0.6,1.7,0.9,3.3,0.6C14.3,24.9,14.5,23.2,14.3,23z"/>
		</g>
	</g>
</g>
</svg>
