<?xml version="1.0" encoding="utf-8"?>
<!-- Generator: Adobe Illustrator 17.1.0, SVG Export Plug-In . SVG Version: 6.00 Build 0)  -->
<!DOCTYPE svg PUBLIC "-//W3C//DTD SVG 1.1//EN" "http://www.w3.org/Graphics/SVG/1.1/DTD/svg11.dtd">
<svg version="1.1" id="レイヤー_1" xmlns="http://www.w3.org/2000/svg" xmlns:xlink="http://www.w3.org/1999/xlink" x="0px"
	 y="0px" viewBox="0 0 36 36" enable-background="new 0 0 36 36" xml:space="preserve">
<circle cx="18" cy="18" r="17.7"/>
<g>
	<linearGradient id="SVGID_1_" gradientUnits="userSpaceOnUse" x1="18" y1="27.9659" x2="18" y2="8.0341">
		<stop  offset="0" style="stop-color:#FF6600"/>
		<stop  offset="0.2267" style="stop-color:#FE9500"/>
		<stop  offset="0.4711" style="stop-color:#FDC100"/>
		<stop  offset="0.6903" style="stop-color:#FDE100"/>
		<stop  offset="0.8741" style="stop-color:#FCF500"/>
		<stop  offset="1" style="stop-color:#FCFC00"/>
	</linearGradient>
	<path fill="url(#SVGID_1_)" d="M27.7,8H18v0v0H8.3c0,0-2.1,11,1.9,15.1C13.8,27,18,28,18,28v0v0c0,0,4.2-0.9,7.9-4.8
		C29.8,19.1,27.7,8,27.7,8z"/>
	<linearGradient id="SVGID_2_" gradientUnits="userSpaceOnUse" x1="17.9995" y1="22.5972" x2="17.9995" y2="11.56">
		<stop  offset="0.2301" style="stop-color:#FA3A00"/>
		<stop  offset="0.3501" style="stop-color:#FB4700"/>
		<stop  offset="0.7807" style="stop-color:#FE7200"/>
		<stop  offset="1" style="stop-color:#FF8300"/>
	</linearGradient>
	<polygon fill="url(#SVGID_2_)" points="23.5,15.2 19.9,15.2 19.9,11.6 16.1,11.6 16.1,15.2 12.5,15.2 12.5,19 16.1,19 16.1,22.6 
		19.9,22.6 19.9,19 23.5,19 	"/>
</g>
</svg>
