<?xml version="1.0" encoding="utf-8"?>
<!-- Generator: Adobe Illustrator 17.1.0, SVG Export Plug-In . SVG Version: 6.00 Build 0)  -->
<!DOCTYPE svg PUBLIC "-//W3C//DTD SVG 1.1//EN" "http://www.w3.org/Graphics/SVG/1.1/DTD/svg11.dtd">
<svg version="1.1" id="レイヤー_1" xmlns="http://www.w3.org/2000/svg" xmlns:xlink="http://www.w3.org/1999/xlink" x="0px"
	 y="0px" viewBox="0 0 36 36" enable-background="new 0 0 36 36" xml:space="preserve">
<g>
	<circle cx="18" cy="18" r="17.7"/>
	<g>
		<linearGradient id="SVGID_1_" gradientUnits="userSpaceOnUse" x1="22.5569" y1="20.3514" x2="22.5569" y2="19.693">
			<stop  offset="0" style="stop-color:#F8EFAB"/>
			<stop  offset="9.305060e-003" style="stop-color:#F8EFAC"/>
			<stop  offset="0.2967" style="stop-color:#FBF6D0"/>
			<stop  offset="0.5662" style="stop-color:#FDFBEA"/>
			<stop  offset="0.8084" style="stop-color:#FFFEFA"/>
			<stop  offset="1" style="stop-color:#FFFFFF"/>
		</linearGradient>
		<rect x="13.7" y="19.7" fill="url(#SVGID_1_)" width="17.8" height="0.7"/>
		<g>
			<g>
				<linearGradient id="SVGID_2_" gradientUnits="userSpaceOnUse" x1="11.2462" y1="27.7263" x2="11.2462" y2="10.783">
					<stop  offset="0" style="stop-color:#0093C2"/>
					<stop  offset="0.4301" style="stop-color:#11C8BE"/>
					<stop  offset="0.8056" style="stop-color:#1EF0BA"/>
					<stop  offset="1" style="stop-color:#23FFB9"/>
				</linearGradient>
				<path fill="url(#SVGID_2_)" d="M17,18.8c-1.4-1.4-3.8-8-5.7-8v0v0c-1.9,0-4.4,6.6-5.7,8c-0.8,0.8-1,1.1-0.9,1.5
					c0.3,0.7,1.5,1,2.3,1.3c0,0,0.2,2.8-0.1,3.8c-0.3,0.9-0.3,1.6,0.4,1.8c0.8,0.2,1.9-0.8,1.9-1.7c0,0-0.3,2.3,0.9,2.3
					c0.9,0,1.2-1.4,1.3-2.1v0v0c0.1,0.7,0.5,2.1,1.3,2.1c1.1,0,0.9-2.3,0.9-2.3c0,0.9,1.1,1.9,1.9,1.7c0.7-0.1,0.7-0.8,0.4-1.8
					c-0.3-0.9-0.1-3.8-0.1-3.8c0.8-0.3,2-0.6,2.3-1.3C18,19.9,17.8,19.6,17,18.8z"/>
				<linearGradient id="SVGID_3_" gradientUnits="userSpaceOnUse" x1="11.2458" y1="21.3984" x2="11.2458" y2="16.801">
					<stop  offset="0" style="stop-color:#003D30"/>
					<stop  offset="7.713217e-002" style="stop-color:#003127"/>
					<stop  offset="0.2544" style="stop-color:#001B16"/>
					<stop  offset="0.4498" style="stop-color:#000C09"/>
					<stop  offset="0.6753" style="stop-color:#000302"/>
					<stop  offset="1" style="stop-color:#000000"/>
				</linearGradient>
				<path fill="url(#SVGID_3_)" d="M13,21.4c-1.1,0-1.2-0.4-1.7-0.4c-0.5,0-0.6,0.4-1.7,0.4c-1.2,0-2.1-1-2.1-2.3
					c0-1.2,0.8-2.4,2.5-2.3c0.8,0.1,1.1,0.4,1.4,0.4c0.3,0,0.5-0.3,1.4-0.4c1.7-0.1,2.5,1.1,2.5,2.3C15.1,20.4,14.2,21.4,13,21.4z"
					/>
				<linearGradient id="SVGID_4_" gradientUnits="userSpaceOnUse" x1="11.2462" y1="20.6328" x2="11.2462" y2="17.176">
					<stop  offset="0" style="stop-color:#ABF8CB"/>
					<stop  offset="9.305060e-003" style="stop-color:#ACF8CC"/>
					<stop  offset="0.2967" style="stop-color:#D0FBE2"/>
					<stop  offset="0.5662" style="stop-color:#EAFDF2"/>
					<stop  offset="0.8084" style="stop-color:#FAFFFC"/>
					<stop  offset="1" style="stop-color:#FFFFFF"/>
				</linearGradient>
				<path fill="url(#SVGID_4_)" d="M12.8,17.2c-0.7,0-1.3,0.4-1.6,1c-0.3-0.6-0.9-1-1.6-1c-0.9,0-1.7,0.8-1.7,1.7
					c0,1,0.8,1.7,1.7,1.7c0.7,0,1.3-0.4,1.6-1c0.3,0.6,0.9,1,1.6,1c0.9,0,1.7-0.8,1.7-1.7C14.5,17.9,13.7,17.2,12.8,17.2z"/>
				<linearGradient id="SVGID_5_" gradientUnits="userSpaceOnUse" x1="9.8269" y1="19.2547" x2="9.8269" y2="17.3329">
					<stop  offset="0" style="stop-color:#003D30"/>
					<stop  offset="7.713217e-002" style="stop-color:#003127"/>
					<stop  offset="0.2544" style="stop-color:#001B16"/>
					<stop  offset="0.4498" style="stop-color:#000C09"/>
					<stop  offset="0.6753" style="stop-color:#000302"/>
					<stop  offset="1" style="stop-color:#000000"/>
				</linearGradient>
				<ellipse fill="url(#SVGID_5_)" cx="9.8" cy="18.3" rx="1" ry="1"/>
				<linearGradient id="SVGID_6_" gradientUnits="userSpaceOnUse" x1="12.6655" y1="19.2547" x2="12.6655" y2="17.3329">
					<stop  offset="0" style="stop-color:#003D30"/>
					<stop  offset="7.713217e-002" style="stop-color:#003127"/>
					<stop  offset="0.2544" style="stop-color:#001B16"/>
					<stop  offset="0.4498" style="stop-color:#000C09"/>
					<stop  offset="0.6753" style="stop-color:#000302"/>
					<stop  offset="1" style="stop-color:#000000"/>
				</linearGradient>
				<ellipse fill="url(#SVGID_6_)" cx="12.7" cy="18.3" rx="1" ry="1"/>
			</g>
			<g>
				<linearGradient id="SVGID_7_" gradientUnits="userSpaceOnUse" x1="11.2462" y1="10.9496" x2="11.2462" y2="10.783">
					<stop  offset="0" style="stop-color:#9AA800"/>
					<stop  offset="0.3036" style="stop-color:#AEBE00"/>
					<stop  offset="0.932" style="stop-color:#E1F600"/>
					<stop  offset="1" style="stop-color:#E7FC00"/>
				</linearGradient>
				<path fill="url(#SVGID_7_)" d="M10.7,10.9c0.2,0,0.4,0,0.6,0c0.2,0,0.4,0,0.6,0c-0.2-0.1-0.4-0.2-0.6-0.2v0v0
					C11.1,10.8,10.9,10.8,10.7,10.9z"/>
				<linearGradient id="SVGID_8_" gradientUnits="userSpaceOnUse" x1="11.2462" y1="13.456" x2="11.2462" y2="12.0157">
					<stop  offset="0" style="stop-color:#00A0A8"/>
					<stop  offset="0.3036" style="stop-color:#00ABBE"/>
					<stop  offset="0.932" style="stop-color:#00C7F6"/>
					<stop  offset="1" style="stop-color:#00CAFC"/>
				</linearGradient>
				<path fill="url(#SVGID_8_)" d="M11.2,13.5c0.9,0,1.8-0.1,2.5-0.3c-0.3-0.4-0.5-0.8-0.8-1.2c-0.4,0.1-1,0.2-1.7,0.2
					c-0.6,0-1.2-0.1-1.7-0.2c-0.3,0.3-0.5,0.7-0.8,1.2C9.5,13.4,10.3,13.5,11.2,13.5z"/>
			</g>
			<linearGradient id="SVGID_9_" gradientUnits="userSpaceOnUse" x1="11.2462" y1="12.3679" x2="11.2462" y2="8.2737">
				<stop  offset="0" style="stop-color:#FFFFFF"/>
				<stop  offset="0.1145" style="stop-color:#FDFFE9"/>
				<stop  offset="0.3529" style="stop-color:#F8FEB1"/>
				<stop  offset="0.6913" style="stop-color:#EFFD57"/>
				<stop  offset="1" style="stop-color:#E7FC00"/>
			</linearGradient>
			<path fill="url(#SVGID_9_)" d="M11.2,8.3c-3.1,0-5.7,0.9-5.7,2c0,1.1,2.5,2,5.7,2c3.1,0,5.7-0.9,5.7-2
				C16.9,9.2,14.4,8.3,11.2,8.3z M11.2,10.8c-1.7,0-3.1-0.4-3.1-0.8c0-0.4,1.4-0.8,3.1-0.8c1.7,0,3.1,0.4,3.1,0.8
				C14.3,10.4,12.9,10.8,11.2,10.8z"/>
		</g>
	</g>
</g>
</svg>
