<?xml version="1.0" encoding="utf-8"?>
<!-- Generator: Adobe Illustrator 17.1.0, SVG Export Plug-In . SVG Version: 6.00 Build 0)  -->
<!DOCTYPE svg PUBLIC "-//W3C//DTD SVG 1.1//EN" "http://www.w3.org/Graphics/SVG/1.1/DTD/svg11.dtd">
<svg version="1.1" id="レイヤー_1" xmlns="http://www.w3.org/2000/svg" xmlns:xlink="http://www.w3.org/1999/xlink" x="0px"
	 y="0px" viewBox="0 0 36 36" enable-background="new 0 0 36 36" xml:space="preserve">
<g>
	<circle cx="18" cy="18" r="17.7"/>
	<g>
		<g>
			<linearGradient id="SVGID_1_" gradientUnits="userSpaceOnUse" x1="24.8332" y1="24.0377" x2="24.8332" y2="17.0487">
				<stop  offset="0" style="stop-color:#2D009E"/>
				<stop  offset="0.3788" style="stop-color:#1928C8"/>
				<stop  offset="0.7873" style="stop-color:#074EF0"/>
				<stop  offset="1" style="stop-color:#005DFF"/>
			</linearGradient>
			<path fill="url(#SVGID_1_)" d="M20.7,18.8c0,0,0.6-1.7,2.4-1.7c1.8,0,1.9,1.5,3.8,1.5c1.9,0,1.9-1.3,1.9-1.3L29,24h-8.3V18.8z"/>
			<circle fill="#3C20C3" cx="22.7" cy="19.4" r="1.3"/>
			<circle fill="#3C20C3" cx="25.6" cy="22.8" r="1.2"/>
			<circle fill="#3C20C3" cx="27.4" cy="19.8" r="0.6"/>
			<linearGradient id="SVGID_2_" gradientUnits="userSpaceOnUse" x1="21.8649" y1="12.0381" x2="27.7373" y2="12.0381">
				<stop  offset="0" style="stop-color:#F8EFAB"/>
				<stop  offset="9.305060e-003" style="stop-color:#F8EFAC"/>
				<stop  offset="0.2967" style="stop-color:#FBF6D0"/>
				<stop  offset="0.5662" style="stop-color:#FDFBEA"/>
				<stop  offset="0.8084" style="stop-color:#FFFEFA"/>
				<stop  offset="1" style="stop-color:#FFFFFF"/>
			</linearGradient>
			<rect x="21.9" y="11" fill="url(#SVGID_2_)" width="5.9" height="2"/>
			<g>
				<g>
					<linearGradient id="SVGID_3_" gradientUnits="userSpaceOnUse" x1="20.2878" y1="19.5673" x2="20.7931" y2="19.5673">
						<stop  offset="0" style="stop-color:#F8EFAB"/>
						<stop  offset="9.305060e-003" style="stop-color:#F8EFAC"/>
						<stop  offset="0.2967" style="stop-color:#FBF6D0"/>
						<stop  offset="0.5662" style="stop-color:#FDFBEA"/>
						<stop  offset="0.8084" style="stop-color:#FFFEFA"/>
						<stop  offset="1" style="stop-color:#FFFFFF"/>
					</linearGradient>
					<rect x="20.3" y="15.1" fill="url(#SVGID_3_)" width="0.5" height="8.9"/>
				</g>
				<g>
					<linearGradient id="SVGID_4_" gradientUnits="userSpaceOnUse" x1="28.8102" y1="19.5673" x2="29.3155" y2="19.5673">
						<stop  offset="0" style="stop-color:#F8EFAB"/>
						<stop  offset="9.305060e-003" style="stop-color:#F8EFAC"/>
						<stop  offset="0.2967" style="stop-color:#FBF6D0"/>
						<stop  offset="0.5662" style="stop-color:#FDFBEA"/>
						<stop  offset="0.8084" style="stop-color:#FFFEFA"/>
						<stop  offset="1" style="stop-color:#FFFFFF"/>
					</linearGradient>
					<rect x="28.8" y="15.1" fill="url(#SVGID_4_)" width="0.5" height="8.9"/>
				</g>
			</g>
			<linearGradient id="SVGID_5_" gradientUnits="userSpaceOnUse" x1="19.2188" y1="14.0251" x2="30.3835" y2="14.0251">
				<stop  offset="0" style="stop-color:#F8EFAB"/>
				<stop  offset="9.305060e-003" style="stop-color:#F8EFAC"/>
				<stop  offset="0.2967" style="stop-color:#FBF6D0"/>
				<stop  offset="0.5662" style="stop-color:#FDFBEA"/>
				<stop  offset="0.8084" style="stop-color:#FFFEFA"/>
				<stop  offset="1" style="stop-color:#FFFFFF"/>
			</linearGradient>
			<rect x="19.2" y="12.7" fill="url(#SVGID_5_)" width="11.2" height="2.6"/>
			<linearGradient id="SVGID_6_" gradientUnits="userSpaceOnUse" x1="19.2188" y1="24.7696" x2="30.3835" y2="24.7696">
				<stop  offset="0" style="stop-color:#F8EFAB"/>
				<stop  offset="9.305060e-003" style="stop-color:#F8EFAC"/>
				<stop  offset="0.2967" style="stop-color:#FBF6D0"/>
				<stop  offset="0.5662" style="stop-color:#FDFBEA"/>
				<stop  offset="0.8084" style="stop-color:#FFFEFA"/>
				<stop  offset="1" style="stop-color:#FFFFFF"/>
			</linearGradient>
			<rect x="19.2" y="23.5" fill="url(#SVGID_6_)" width="11.2" height="2.6"/>
		</g>
		<g>
			<linearGradient id="SVGID_7_" gradientUnits="userSpaceOnUse" x1="3.868" y1="15.8263" x2="18.3048" y2="15.8263">
				<stop  offset="0" style="stop-color:#F8EFAB"/>
				<stop  offset="9.305060e-003" style="stop-color:#F8EFAC"/>
				<stop  offset="0.2967" style="stop-color:#FBF6D0"/>
				<stop  offset="0.5662" style="stop-color:#FDFBEA"/>
				<stop  offset="0.8084" style="stop-color:#FFFEFA"/>
				<stop  offset="1" style="stop-color:#FFFFFF"/>
			</linearGradient>
			<path fill="url(#SVGID_7_)" d="M14.7,15.8l-3.6-6.3l-3.6,6.3l-3.6,6.3h7.2h7.2L14.7,15.8z M5.3,21.3l2.9-5l2.9-5l2.9,5l2.9,5
				h-5.8H5.3z"/>
			<linearGradient id="SVGID_8_" gradientUnits="userSpaceOnUse" x1="9.3231" y1="11.0222" x2="12.8277" y2="11.0222">
				<stop  offset="0" style="stop-color:#F8EFAB"/>
				<stop  offset="9.305060e-003" style="stop-color:#F8EFAC"/>
				<stop  offset="0.2967" style="stop-color:#FBF6D0"/>
				<stop  offset="0.5662" style="stop-color:#FDFBEA"/>
				<stop  offset="0.8084" style="stop-color:#FFFEFA"/>
				<stop  offset="1" style="stop-color:#FFFFFF"/>
			</linearGradient>
			<circle fill="url(#SVGID_8_)" cx="11.1" cy="11" r="1.8"/>
			<linearGradient id="SVGID_9_" gradientUnits="userSpaceOnUse" x1="3.3914" y1="21.1314" x2="6.897" y2="21.1314">
				<stop  offset="0" style="stop-color:#F8EFAB"/>
				<stop  offset="9.305060e-003" style="stop-color:#F8EFAC"/>
				<stop  offset="0.2967" style="stop-color:#FBF6D0"/>
				<stop  offset="0.5662" style="stop-color:#FDFBEA"/>
				<stop  offset="0.8084" style="stop-color:#FFFEFA"/>
				<stop  offset="1" style="stop-color:#FFFFFF"/>
			</linearGradient>
			<circle fill="url(#SVGID_9_)" cx="5.1" cy="21.1" r="1.8"/>
			<linearGradient id="SVGID_10_" gradientUnits="userSpaceOnUse" x1="15.16" y1="21.1314" x2="18.6637" y2="21.1314">
				<stop  offset="0" style="stop-color:#F8EFAB"/>
				<stop  offset="9.305060e-003" style="stop-color:#F8EFAC"/>
				<stop  offset="0.2967" style="stop-color:#FBF6D0"/>
				<stop  offset="0.5662" style="stop-color:#FDFBEA"/>
				<stop  offset="0.8084" style="stop-color:#FFFEFA"/>
				<stop  offset="1" style="stop-color:#FFFFFF"/>
			</linearGradient>
			<circle fill="url(#SVGID_10_)" cx="16.9" cy="21.1" r="1.8"/>
			<linearGradient id="SVGID_11_" gradientUnits="userSpaceOnUse" x1="11.0754" y1="20.1425" x2="11.0754" y2="13.9836">
				<stop  offset="0" style="stop-color:#1524C6"/>
				<stop  offset="0.3064" style="stop-color:#1D42DA"/>
				<stop  offset="0.7626" style="stop-color:#276AF5"/>
				<stop  offset="1" style="stop-color:#2B79FF"/>
			</linearGradient>
			<path fill="url(#SVGID_11_)" d="M14.5,19.5L13,16.9l-1.5-2.6l0,0c-0.1-0.1-0.2-0.2-0.4-0.2s-0.3,0.1-0.4,0.2l0,0l-1.5,2.6
				l-1.5,2.6c-0.1,0.1-0.1,0.2-0.1,0.3c0,0.2,0.2,0.4,0.4,0.4h3.1h3.1c0.2,0,0.4-0.2,0.4-0.4C14.6,19.6,14.5,19.5,14.5,19.5z"/>
		</g>
	</g>
</g>
</svg>
