<?xml version="1.0" encoding="utf-8"?>
<!-- Generator: Adobe Illustrator 17.1.0, SVG Export Plug-In . SVG Version: 6.00 Build 0)  -->
<!DOCTYPE svg PUBLIC "-//W3C//DTD SVG 1.1//EN" "http://www.w3.org/Graphics/SVG/1.1/DTD/svg11.dtd">
<svg version="1.1" id="レイヤー_1" xmlns="http://www.w3.org/2000/svg" xmlns:xlink="http://www.w3.org/1999/xlink" x="0px"
	 y="0px" viewBox="0 0 36 36" enable-background="new 0 0 36 36" xml:space="preserve">
<g>
	<circle cx="18" cy="18" r="17.7"/>
	<g>
		<g>
			<g>
				<path fill="#FFFFFF" d="M3.8,19.3c-0.1,0-0.1,0-0.2-0.1c-0.1-0.2-0.1-0.4-0.1-0.5c0-0.2,0-0.4,0.1-0.5C3.7,18,3.8,18,3.9,18
					C4,18.1,4,18.2,4,18.2c-0.1,0.1-0.1,0.3-0.1,0.4c0,0,0,0,0,0c0,0,0,0,0,0c0,0.1,0,0.3,0.1,0.4C4,19.2,4,19.3,3.8,19.3
					C3.9,19.3,3.9,19.3,3.8,19.3z"/>
				<path fill="#FFFFFF" d="M13.4,26.6C13.4,26.6,13.4,26.6,13.4,26.6c-0.3-0.1-0.5-0.3-0.9-0.7c-0.1-0.1-0.1-0.2,0-0.2
					c0.1-0.1,0.2-0.1,0.2,0c0.3,0.3,0.6,0.5,0.7,0.6c0.1,0,0.1,0.1,0.1,0.2C13.5,26.6,13.5,26.6,13.4,26.6z M14.3,26.3
					c0,0-0.1,0-0.1,0c-0.1-0.1-0.1-0.2,0-0.2c0.2-0.2,0.3-0.5,0.5-0.8c0-0.1,0.1-0.1,0.2-0.1c0.1,0,0.1,0.1,0.1,0.2
					c-0.2,0.4-0.3,0.7-0.5,0.9C14.4,26.2,14.3,26.3,14.3,26.3z M11.9,25.3c0,0-0.1,0-0.1,0c-0.2-0.2-0.5-0.4-0.8-0.6
					c-0.1-0.1-0.1-0.2,0-0.2c0.1-0.1,0.2-0.1,0.2,0c0.3,0.2,0.6,0.4,0.8,0.6c0.1,0.1,0.1,0.2,0,0.2C12,25.2,12,25.3,11.9,25.3z
					 M10.2,24.1C10.2,24.1,10.2,24.1,10.2,24.1c-0.4-0.2-0.7-0.4-1-0.5c-0.1,0-0.1-0.2-0.1-0.2c0-0.1,0.2-0.1,0.2-0.1
					c0.3,0.2,0.6,0.4,0.9,0.5c0.1,0,0.1,0.2,0.1,0.2C10.3,24.1,10.3,24.1,10.2,24.1z M8.5,23.1C8.5,23.1,8.4,23.1,8.5,23.1
					c-0.4-0.2-0.7-0.4-1-0.5c-0.1,0-0.1-0.2-0.1-0.2c0-0.1,0.2-0.1,0.2-0.1c0.3,0.2,0.6,0.4,0.9,0.5c0.1,0,0.1,0.2,0.1,0.2
					C8.6,23.1,8.6,23.1,8.5,23.1z M6.8,22C6.7,22,6.7,22,6.8,22c-0.4-0.2-0.7-0.4-0.9-0.6c-0.1-0.1-0.1-0.2,0-0.2
					c0.1-0.1,0.2-0.1,0.2,0c0.3,0.2,0.5,0.4,0.8,0.6C6.9,21.8,7,21.9,6.9,22C6.9,22,6.8,22,6.8,22z M5.1,20.8c0,0-0.1,0-0.1,0
					c-0.3-0.2-0.6-0.5-0.8-0.7c-0.1-0.1-0.1-0.2,0-0.2c0.1-0.1,0.2-0.1,0.2,0c0.2,0.2,0.4,0.4,0.7,0.7c0.1,0.1,0.1,0.2,0,0.2
					C5.2,20.8,5.2,20.8,5.1,20.8z"/>
				<path fill="#FFFFFF" d="M15.1,24.4C15.1,24.4,15.1,24.4,15.1,24.4c-0.1,0-0.2-0.1-0.2-0.2l0-0.1c0-0.1,0.1-0.3,0.1-0.4
					c0-0.1,0.1-0.1,0.2-0.1c0,0,0.2,0,0.5,0c0.1,0,0.2,0.1,0.2,0.2c0,0.1-0.1,0.2-0.2,0.2c-0.2,0-0.3,0-0.4,0c0,0.1-0.1,0.2-0.1,0.3
					l0,0.1C15.2,24.4,15.2,24.4,15.1,24.4z"/>
				<path fill="#FFFFFF" d="M20.4,24.3c-0.1,0-0.2-0.1-0.2-0.2c0-0.1,0.1-0.2,0.2-0.2c0.3,0,0.5-0.2,0.6-0.4c0-0.1,0.1-0.1,0.2-0.1
					c0.1,0,0.1,0.1,0.1,0.2C21.1,24,20.9,24.2,20.4,24.3C20.4,24.3,20.4,24.3,20.4,24.3z M19.5,24.1C19.5,24.1,19.4,24.1,19.5,24.1
					c-0.1,0-0.2-0.1-0.3-0.1C19,24,18.8,24,18.5,23.9c-0.1,0-0.2-0.1-0.2-0.2c0-0.1,0.1-0.2,0.2-0.2c0.3,0,0.5,0.1,0.7,0.1
					c0.1,0,0.2,0,0.2,0.1c0.1,0,0.1,0.1,0.1,0.2C19.6,24.1,19.6,24.1,19.5,24.1z M16.7,23.9c-0.1,0-0.2-0.1-0.2-0.2
					c0-0.1,0.1-0.2,0.2-0.2c0.3,0,0.6,0,1,0c0.1,0,0.2,0.1,0.2,0.2c0,0.1-0.1,0.2-0.2,0.2C17.3,23.9,17,23.9,16.7,23.9
					C16.7,23.9,16.7,23.9,16.7,23.9z M21,22.8c-0.1,0-0.1,0-0.2-0.1c-0.1-0.3-0.3-0.5-0.5-0.7c-0.1-0.1-0.1-0.2,0-0.2
					c0.1-0.1,0.2-0.1,0.2,0c0.2,0.3,0.4,0.5,0.5,0.8C21.2,22.7,21.2,22.8,21,22.8C21.1,22.8,21.1,22.8,21,22.8z"/>
				<path fill="#FFFFFF" d="M19.8,21.5C19.7,21.5,19.7,21.5,19.8,21.5c-0.1,0-0.2-0.1-0.3-0.1c-0.1,0-0.2,0-0.2,0
					c-0.1,0-0.2-0.1-0.1-0.2c0-0.1,0.1-0.2,0.2-0.2c0.1,0,0.2,0,0.3,0c0.1,0,0.1,0,0.2,0c0.1,0,0.2,0.1,0.2,0.2c0,0,0,0,0,0
					c0,0,0,0,0,0.1C19.9,21.4,19.8,21.5,19.8,21.5z"/>
				<path fill="#FFFFFF" d="M20.8,21.3c-0.1,0-0.2-0.1-0.2-0.1c0-0.1,0-0.2,0.1-0.2c0.4-0.1,0.6-0.2,0.8-0.4c0.1-0.1,0.2-0.1,0.2,0
					c0.1,0.1,0.1,0.2,0,0.2C21.6,21.1,21.2,21.3,20.8,21.3C20.8,21.3,20.8,21.3,20.8,21.3z M21.7,20c-0.1,0-0.1,0-0.2-0.1
					c-0.1-0.2-0.3-0.4-0.6-0.6c-0.1,0-0.1-0.1-0.1-0.2c0-0.1,0.2-0.1,0.2-0.1c0.4,0.2,0.6,0.5,0.8,0.7C21.9,19.8,21.9,19.9,21.7,20
					C21.7,20,21.7,20,21.7,20z"/>
				<path fill="#FFFFFF" d="M20.1,18.9C20.1,18.9,20,18.9,20.1,18.9c-0.2-0.1-0.4-0.1-0.5-0.1c-0.1,0-0.2-0.1-0.2-0.2
					c0-0.1,0.1-0.2,0.2-0.2c0.1,0,0.3-0.1,0.4-0.1c0.1,0,0.2,0,0.2,0.1c0,0.1,0,0.1,0,0.2c0,0,0,0.1,0,0.2
					C20.2,18.9,20.1,18.9,20.1,18.9z"/>
				<path fill="#FFFFFF" d="M21,18.4c-0.1,0-0.1,0-0.2-0.1c0-0.1,0-0.2,0.1-0.2c0.3-0.2,0.5-0.4,0.6-0.6c0-0.1,0.1-0.1,0.2-0.1
					c0.1,0,0.1,0.1,0.1,0.2C21.7,17.9,21.4,18.1,21,18.4C21,18.4,21,18.4,21,18.4z M21.6,16.8c-0.1,0-0.1,0-0.1-0.1
					c-0.1-0.2-0.4-0.3-0.8-0.4c-0.1,0-0.2-0.1-0.1-0.2c0-0.1,0.1-0.2,0.2-0.1c0.4,0.1,0.8,0.3,1,0.5c0.1,0.1,0,0.2,0,0.2
					C21.7,16.8,21.7,16.8,21.6,16.8z"/>
				<path fill="#FFFFFF" d="M19.3,16.3c-0.1,0-0.2-0.1-0.2-0.2c0-0.1,0.1-0.2,0.1-0.2c0,0,0.1,0,0.2,0c0.1,0,0.1,0,0.2-0.1
					c0.1,0,0.2,0,0.2,0.1c0,0,0,0,0,0.1c0,0,0,0,0,0c0,0.1-0.1,0.2-0.2,0.2c-0.1,0-0.2,0-0.2,0C19.5,16.3,19.4,16.3,19.3,16.3z"/>
				<path fill="#FFFFFF" d="M20.5,15.7c0,0-0.1,0-0.1,0c-0.1-0.1-0.1-0.2,0-0.2c0.2-0.2,0.4-0.5,0.5-0.7c0-0.1,0.1-0.1,0.2-0.1
					c0.1,0,0.1,0.1,0.1,0.2c-0.1,0.3-0.3,0.6-0.5,0.8C20.6,15.6,20.6,15.7,20.5,15.7z M21.1,13.9c-0.1,0-0.1,0-0.2-0.1
					c-0.1-0.3-0.3-0.4-0.5-0.4c-0.1,0-0.2-0.1-0.2-0.2c0-0.1,0.1-0.2,0.2-0.2c0.4,0,0.7,0.3,0.8,0.7C21.3,13.8,21.3,13.9,21.1,13.9
					C21.1,13.9,21.1,13.9,21.1,13.9z M17.3,13.8c-0.2,0-0.4,0-0.6,0c-0.1,0-0.2-0.1-0.2-0.2c0-0.1,0.1-0.2,0.2-0.2
					c0.2,0,0.4,0,0.6,0c0.1,0,0.2,0,0.3,0c0.1,0,0.2,0.1,0.2,0.2c0,0.1-0.1,0.2-0.2,0.2C17.5,13.8,17.4,13.8,17.3,13.8z M18.6,13.7
					c-0.1,0-0.2-0.1-0.2-0.2c0-0.1,0.1-0.2,0.2-0.2c0.3,0,0.5-0.1,0.6-0.1c0.1,0,0.2-0.1,0.3-0.1c0.1,0,0.2,0,0.2,0.1
					c0,0.1,0,0.2-0.1,0.2c-0.1,0-0.2,0-0.2,0.1C19.1,13.6,18.9,13.7,18.6,13.7C18.6,13.7,18.6,13.7,18.6,13.7z"/>
				<path fill="#FFFFFF" d="M15.7,13.7C15.7,13.7,15.7,13.7,15.7,13.7c-0.3,0-0.5,0-0.5,0c-0.1,0-0.1-0.1-0.2-0.1
					c0-0.1-0.1-0.2-0.1-0.4l0-0.1c0-0.1,0-0.2,0.1-0.2c0.1,0,0.2,0,0.2,0.1l0,0.1c0,0.1,0.1,0.2,0.1,0.3c0.1,0,0.2,0,0.4,0
					c0.1,0,0.2,0.1,0.2,0.2C15.9,13.7,15.8,13.7,15.7,13.7z"/>
				<path fill="#FFFFFF" d="M4.4,17.5c0,0-0.1,0-0.1,0c-0.1-0.1-0.1-0.2,0-0.2C4.5,17,4.7,16.8,5,16.5c0.1-0.1,0.2-0.1,0.2,0
					c0.1,0.1,0.1,0.2,0,0.2C5,17,4.7,17.2,4.5,17.5C4.5,17.5,4.4,17.5,4.4,17.5z M5.9,16.2c-0.1,0-0.1,0-0.1-0.1
					c-0.1-0.1,0-0.2,0-0.2c0.3-0.2,0.6-0.4,0.8-0.6c0.1-0.1,0.2,0,0.2,0.1c0.1,0.1,0,0.2-0.1,0.2C6.6,15.8,6.3,16,5.9,16.2
					C6,16.2,6,16.2,5.9,16.2z M7.6,15.1c-0.1,0-0.1,0-0.1-0.1c0-0.1,0-0.2,0.1-0.2c0.3-0.2,0.6-0.4,0.9-0.5c0.1,0,0.2,0,0.2,0.1
					c0,0.1,0,0.2-0.1,0.2C8.3,14.7,8,14.9,7.6,15.1C7.7,15.1,7.7,15.1,7.6,15.1z M9.4,14.1c-0.1,0-0.1,0-0.1-0.1
					c0-0.1,0-0.2,0.1-0.2c0.3-0.2,0.6-0.4,0.9-0.5c0.1,0,0.2,0,0.2,0.1c0,0.1,0,0.2-0.1,0.2C10,13.7,9.8,13.9,9.4,14.1
					C9.4,14,9.4,14.1,9.4,14.1z M11.1,13c-0.1,0-0.1,0-0.1-0.1c-0.1-0.1,0-0.2,0-0.2c0.3-0.2,0.6-0.4,0.8-0.6c0.1-0.1,0.2,0,0.2,0
					c0.1,0.1,0,0.2,0,0.2C11.8,12.5,11.5,12.7,11.1,13C11.2,13,11.1,13,11.1,13z M14.8,12.3c-0.1,0-0.1,0-0.2-0.1
					c-0.1-0.4-0.3-0.6-0.5-0.8c-0.1-0.1-0.1-0.2,0-0.2c0.1-0.1,0.2-0.1,0.2,0c0.2,0.2,0.4,0.5,0.5,0.9C15,12.1,14.9,12.2,14.8,12.3
					C14.8,12.3,14.8,12.3,14.8,12.3z M12.6,11.7c0,0-0.1,0-0.1,0c-0.1-0.1-0.1-0.2,0-0.2c0.4-0.4,0.6-0.6,0.8-0.7
					c0.1,0,0.2,0,0.2,0.1c0,0.1,0,0.2-0.1,0.2c-0.2,0.1-0.4,0.3-0.7,0.6C12.7,11.7,12.7,11.7,12.6,11.7z"/>
			</g>
			
				<linearGradient id="SVGID_1_" gradientUnits="userSpaceOnUse" x1="-959.7966" y1="866.8527" x2="-959.7966" y2="861.4621" gradientTransform="matrix(0 -1 1 0 -851.5788 -941.1341)">
				<stop  offset="0" style="stop-color:#13003D"/>
				<stop  offset="7.713217e-002" style="stop-color:#0F0031"/>
				<stop  offset="0.2544" style="stop-color:#09001B"/>
				<stop  offset="0.4498" style="stop-color:#04000C"/>
				<stop  offset="0.6753" style="stop-color:#010003"/>
				<stop  offset="1" style="stop-color:#000000"/>
			</linearGradient>
			<path fill="url(#SVGID_1_)" d="M15.3,16.6c0,1.3-0.5,1.4-0.5,2c0,0.6,0.5,0.7,0.5,2c0,1.4-1.2,2.5-2.7,2.5
				c-1.4,0-2.8-0.9-2.7-2.9c0.1-1,0.5-1.3,0.5-1.6c0-0.4-0.4-0.6-0.5-1.6c-0.2-2,1.3-2.9,2.7-2.9C14.1,14.1,15.3,15.2,15.3,16.6z"/>
			
				<linearGradient id="SVGID_2_" gradientUnits="userSpaceOnUse" x1="-959.7961" y1="865.955" x2="-959.7961" y2="861.903" gradientTransform="matrix(0 -1 1 0 -851.5788 -941.1341)">
				<stop  offset="0" style="stop-color:#F8EFAB"/>
				<stop  offset="9.305060e-003" style="stop-color:#F8EFAC"/>
				<stop  offset="0.2967" style="stop-color:#FBF6D0"/>
				<stop  offset="0.5662" style="stop-color:#FDFBEA"/>
				<stop  offset="0.8084" style="stop-color:#FFFEFA"/>
				<stop  offset="1" style="stop-color:#FFFFFF"/>
			</linearGradient>
			<path fill="url(#SVGID_2_)" d="M10.3,16.8c0,0.8,0.5,1.5,1.2,1.8c-0.7,0.3-1.2,1-1.2,1.8c0,1.1,0.9,2,2,2c1.1,0,2-0.9,2-2
				c0-0.8-0.5-1.5-1.2-1.8c0.7-0.3,1.2-1,1.2-1.8c0-1.1-0.9-2-2-2C11.2,14.8,10.3,15.7,10.3,16.8z"/>
			
				<linearGradient id="SVGID_3_" gradientUnits="userSpaceOnUse" x1="-961.4597" y1="864.3399" x2="-961.4597" y2="862.0871" gradientTransform="matrix(0 -1 1 0 -851.5792 -941.1341)">
				<stop  offset="0" style="stop-color:#000000"/>
				<stop  offset="0.3247" style="stop-color:#010003"/>
				<stop  offset="0.5502" style="stop-color:#04000C"/>
				<stop  offset="0.7456" style="stop-color:#09001B"/>
				<stop  offset="0.9229" style="stop-color:#0F0031"/>
				<stop  offset="1" style="stop-color:#13003D"/>
			</linearGradient>
			<ellipse fill="url(#SVGID_3_)" cx="11.6" cy="20.3" rx="1.1" ry="1.2"/>
			
				<linearGradient id="SVGID_4_" gradientUnits="userSpaceOnUse" x1="-958.1323" y1="864.3395" x2="-958.1323" y2="862.0867" gradientTransform="matrix(0 -1 1 0 -851.5788 -941.1341)">
				<stop  offset="0" style="stop-color:#000000"/>
				<stop  offset="0.3247" style="stop-color:#010003"/>
				<stop  offset="0.5502" style="stop-color:#04000C"/>
				<stop  offset="0.7456" style="stop-color:#09001B"/>
				<stop  offset="0.9229" style="stop-color:#0F0031"/>
				<stop  offset="1" style="stop-color:#13003D"/>
			</linearGradient>
			<ellipse fill="url(#SVGID_4_)" cx="11.6" cy="17" rx="1.1" ry="1.2"/>
		</g>
		<g>
			<path fill="#FFFFFF" d="M22.5,17.5c-0.1,0-0.2-0.1-0.2-0.1c0-0.1,0.1-0.2,0.1-0.2c0.1,0,0.3-0.1,0.4-0.1c0.1,0,0.2,0,0.2,0.1
				c0,0.1,0,0.2-0.1,0.2C22.9,17.5,22.7,17.5,22.5,17.5C22.5,17.5,22.5,17.5,22.5,17.5z"/>
			<path fill="#FFFFFF" d="M24,17.6c-0.1,0-0.2-0.1-0.2-0.2c0-0.1,0.1-0.2,0.2-0.2c0.3,0,0.6,0,1-0.1c0.1,0,0.2,0.1,0.2,0.1
				c0,0.1-0.1,0.2-0.1,0.2C24.7,17.6,24.3,17.6,24,17.6C24,17.6,24,17.6,24,17.6z M26,17.4c-0.1,0-0.1-0.1-0.2-0.1
				c0-0.1,0-0.2,0.1-0.2c0.3-0.1,0.7-0.2,1-0.2c0.1,0,0.2,0,0.2,0.1c0,0.1,0,0.2-0.1,0.2C26.7,17.2,26.4,17.3,26,17.4
				C26,17.4,26,17.4,26,17.4z M27.9,16.8c-0.1,0-0.1,0-0.2-0.1c0-0.1,0-0.2,0.1-0.2c0.3-0.1,0.6-0.3,0.9-0.4c0.1,0,0.2,0,0.2,0.1
				c0,0.1,0,0.2-0.1,0.2C28.7,16.5,28.3,16.6,27.9,16.8C28,16.8,28,16.8,27.9,16.8z M23.7,16.7c0,0-0.1,0-0.1,0
				c-0.1-0.1-0.1-0.2,0-0.2c0.2-0.2,0.4-0.5,0.6-0.8c0-0.1,0.2-0.1,0.2-0.1c0.1,0,0.1,0.2,0.1,0.2c-0.2,0.3-0.4,0.6-0.6,0.8
				C23.8,16.7,23.8,16.7,23.7,16.7z M29.7,15.8c-0.1,0-0.1,0-0.1-0.1c-0.1-0.1,0-0.2,0-0.2c0.2-0.2,0.4-0.4,0.6-0.5
				c0,0,0.1-0.1,0.1-0.1c0.1-0.1,0.2-0.1,0.2,0c0.1,0.1,0.1,0.2,0,0.2c0,0-0.1,0.1-0.1,0.1c-0.2,0.2-0.4,0.4-0.7,0.6
				C29.8,15.8,29.8,15.8,29.7,15.8z M24.8,15C24.7,15,24.7,15,24.8,15c-0.2,0-0.2-0.1-0.2-0.2c0.1-0.3,0.2-0.5,0.3-0.8l0.1-0.2
				c0-0.1,0.1-0.1,0.2-0.1c0.1,0,0.1,0.1,0.1,0.2l-0.1,0.2c-0.1,0.3-0.2,0.5-0.3,0.8C24.9,15,24.8,15,24.8,15z M30.9,14.3
				C30.9,14.3,30.9,14.3,30.9,14.3c-0.1,0-0.2-0.1-0.2-0.2c0.1-0.3,0.2-0.6,0.2-0.9c0-0.1,0.1-0.2,0.2-0.2c0,0,0,0,0,0
				c0.1,0,0.2,0.1,0.2,0.2c0,0.4-0.1,0.7-0.2,1C31.1,14.2,31,14.3,30.9,14.3z M25.5,13.1C25.5,13.1,25.5,13.1,25.5,13.1
				c-0.2-0.1-0.2-0.2-0.2-0.2c0.2-0.3,0.3-0.6,0.5-0.9c0.1-0.1,0.2-0.1,0.2,0c0.1,0.1,0.1,0.2,0,0.2c-0.2,0.3-0.3,0.5-0.5,0.8
				C25.6,13.1,25.6,13.1,25.5,13.1z M30.9,12.3c-0.1,0-0.1,0-0.2-0.1c-0.1-0.3-0.3-0.6-0.5-0.8c-0.1-0.1-0.1-0.2,0-0.2
				c0.1-0.1,0.2-0.1,0.2,0c0.3,0.2,0.5,0.5,0.6,0.9C31.1,12.1,31.1,12.2,30.9,12.3C31,12.3,30.9,12.3,30.9,12.3z M26.7,11.5
				c0,0-0.1,0-0.1-0.1c-0.1-0.1-0.1-0.2,0-0.2c0.3-0.2,0.6-0.4,0.9-0.6c0.1,0,0.2,0,0.2,0.1c0,0.1,0,0.2-0.1,0.2
				c-0.3,0.1-0.6,0.3-0.8,0.5C26.8,11.5,26.7,11.5,26.7,11.5z M29.5,10.9C29.5,10.9,29.5,10.9,29.5,10.9l-0.1,0
				c-0.3-0.1-0.6-0.1-0.9-0.1c-0.1,0-0.2-0.1-0.2-0.2c0-0.1,0.1-0.2,0.2-0.2h0c0.3,0,0.6,0.1,1,0.2l0.1,0c0.1,0,0.1,0.1,0.1,0.2
				C29.6,10.9,29.6,10.9,29.5,10.9z"/>
			<path fill="#FFFFFF" d="M23,17.6C23,17.6,23,17.6,23,17.6c-0.2,0-0.4,0-0.5-0.1c-0.1,0-0.2-0.1-0.1-0.2c0-0.1,0.1-0.2,0.2-0.1
				c0.1,0,0.3,0.1,0.5,0.1c0.1,0,0.2,0.1,0.2,0.2C23.1,17.5,23.1,17.6,23,17.6z"/>
		</g>
		<g>
			<path fill="#FFFFFF" d="M22.9,12.9C22.9,12.9,22.8,12.9,22.9,12.9c-0.1,0-0.2-0.1-0.2-0.2c0.1-0.2,0.1-0.3,0.1-0.5
				c0-0.1,0.1-0.1,0.2-0.1c0.1,0,0.1,0.1,0.1,0.2c0,0.2-0.1,0.3-0.1,0.5C23,12.9,22.9,12.9,22.9,12.9z"/>
			<path fill="#FFFFFF" d="M24.1,12c-0.1,0-0.1,0-0.1-0.1c-0.1-0.1,0-0.2,0-0.2l0.4-0.3c0.1-0.1,0.2-0.2,0.4-0.3
				c0.1-0.1,0.2-0.1,0.2,0c0.1,0.1,0.1,0.2,0,0.2c-0.1,0.1-0.3,0.2-0.4,0.3L24.2,12C24.1,12,24.1,12,24.1,12z M23.2,11.5
				C23.2,11.5,23.2,11.5,23.2,11.5c-0.1,0-0.2-0.1-0.2-0.2c0-0.3,0.1-0.6,0.1-1c0-0.1,0.1-0.2,0.2-0.2c0.1,0,0.2,0.1,0.2,0.2
				c0,0.4,0,0.7-0.1,1C23.4,11.4,23.3,11.5,23.2,11.5z M25.6,10.7c0,0-0.1,0-0.1-0.1c-0.1-0.1-0.1-0.2,0-0.2
				c0.2-0.2,0.4-0.5,0.5-0.8c0-0.1,0.1-0.1,0.2-0.1c0.1,0,0.1,0.1,0.1,0.2c-0.1,0.4-0.4,0.7-0.6,0.9C25.7,10.7,25.7,10.7,25.6,10.7z
				 M23.3,9.5C23.3,9.5,23.3,9.5,23.3,9.5c-0.1,0-0.2-0.1-0.2-0.2c0-0.4,0.1-0.7,0.2-1c0-0.1,0.1-0.1,0.2-0.1c0.1,0,0.1,0.1,0.1,0.2
				c-0.1,0.3-0.2,0.6-0.2,0.9C23.4,9.4,23.4,9.5,23.3,9.5z M26.3,8.9c-0.1,0-0.2-0.1-0.2-0.1c0-0.3-0.2-0.6-0.4-0.8
				c-0.1-0.1-0.1-0.2,0-0.2c0.1-0.1,0.2-0.1,0.2,0c0.2,0.3,0.4,0.6,0.5,1C26.5,8.8,26.4,8.9,26.3,8.9C26.3,8.9,26.3,8.9,26.3,8.9z
				 M24.1,7.7c-0.1,0-0.1,0-0.1-0.1c-0.1-0.1,0-0.2,0-0.2c0.2-0.2,0.5-0.2,0.8-0.2c0.1,0,0.1,0,0.2,0c0,0,0.1,0,0.1,0
				c0.1,0,0.2,0.1,0.1,0.2c0,0.1-0.1,0.2-0.2,0.1c0,0,0,0-0.1,0c-0.1,0-0.1,0-0.2,0c0,0,0,0,0,0c-0.2,0-0.4,0.1-0.6,0.2
				C24.1,7.7,24.1,7.7,24.1,7.7z"/>
			<path fill="#FFFFFF" d="M22.9,12.9c0,0-0.1,0-0.1-0.1c-0.1-0.1,0-0.2,0-0.2c0.1-0.1,0.2-0.2,0.4-0.3c0.1-0.1,0.2,0,0.2,0
				c0.1,0.1,0,0.2,0,0.2c-0.1,0.1-0.3,0.2-0.4,0.3C22.9,12.9,22.9,12.9,22.9,12.9z"/>
		</g>
		<g>
			<path fill="#FFFFFF" d="M23.4,21.2c-0.1,0-0.1,0-0.1-0.1c-0.1-0.2-0.2-0.3-0.3-0.4c0-0.1,0-0.2,0.1-0.2c0.1,0,0.2,0,0.2,0.1
				c0.1,0.1,0.1,0.3,0.2,0.4c0.1,0.1,0,0.2,0,0.2C23.4,21.1,23.4,21.2,23.4,21.2z"/>
			<path fill="#FFFFFF" d="M27.2,26.8C27.2,26.8,27.2,26.8,27.2,26.8c-0.3,0-0.7-0.1-1-0.2c-0.1,0-0.1-0.1-0.1-0.2
				c0-0.1,0.1-0.1,0.2-0.1c0.3,0.1,0.6,0.1,0.9,0.2c0.1,0,0.2,0.1,0.2,0.2C27.4,26.7,27.3,26.8,27.2,26.8z M28.2,26.8
				c-0.1,0-0.2-0.1-0.2-0.1c0-0.1,0-0.2,0.1-0.2c0.3,0,0.6-0.1,0.8-0.3c0.1,0,0.2,0,0.2,0.1c0,0.1,0,0.2-0.1,0.2
				C28.9,26.6,28.6,26.7,28.2,26.8C28.2,26.8,28.2,26.8,28.2,26.8z M25.5,26.2C25.4,26.2,25.4,26.2,25.5,26.2
				c-0.3-0.2-0.6-0.4-0.8-0.7c-0.1-0.1-0.1-0.2,0-0.2c0.1-0.1,0.2-0.1,0.2,0c0.2,0.2,0.4,0.5,0.7,0.6c0.1,0.1,0.1,0.2,0,0.2
				C25.6,26.2,25.5,26.2,25.5,26.2z M29.7,25.8C29.7,25.8,29.7,25.8,29.7,25.8c-0.2-0.1-0.2-0.2-0.1-0.3c0.1-0.2,0.2-0.5,0.2-0.8
				c0-0.1,0.1-0.2,0.2-0.2c0.1,0,0.2,0.1,0.2,0.2l0,0c0,0.4-0.1,0.7-0.3,1C29.8,25.8,29.8,25.8,29.7,25.8z M24.2,24.8
				c-0.1,0-0.1,0-0.1-0.1c-0.2-0.3-0.3-0.6-0.4-0.9c0-0.1,0-0.2,0.1-0.2c0.1,0,0.2,0,0.2,0.1c0.1,0.3,0.3,0.6,0.4,0.8
				C24.4,24.6,24.4,24.8,24.2,24.8C24.3,24.8,24.3,24.8,24.2,24.8z M29.9,24c-0.1,0-0.1,0-0.2-0.1c-0.1-0.3-0.2-0.5-0.4-0.7
				c-0.1-0.1-0.1-0.2,0-0.2c0.1-0.1,0.2-0.1,0.2,0c0.2,0.2,0.4,0.5,0.5,0.9C30,23.9,30,24,29.9,24C29.9,24,29.9,24,29.9,24z
				 M23.5,23.1c-0.1,0-0.1,0-0.2-0.1c-0.1-0.3-0.2-0.6-0.2-0.9c0-0.1,0-0.2,0.1-0.2c0.1,0,0.2,0,0.2,0.1c0.1,0.3,0.1,0.6,0.2,0.9
				C23.7,23,23.7,23.1,23.5,23.1C23.5,23.1,23.5,23.1,23.5,23.1z M28.6,22.7C28.6,22.7,28.6,22.7,28.6,22.7
				c-0.3-0.1-0.6-0.2-0.9-0.2c-0.1,0-0.2-0.1-0.2-0.2c0-0.1,0.1-0.2,0.2-0.2c0.3,0,0.7,0.1,1,0.2c0.1,0,0.1,0.1,0.1,0.2
				C28.7,22.6,28.7,22.7,28.6,22.7z M26.7,22.5C26.7,22.5,26.7,22.5,26.7,22.5c-0.3,0-0.6,0-1-0.1c-0.1,0-0.2-0.1-0.1-0.2
				c0-0.1,0.1-0.2,0.2-0.1c0.3,0.1,0.6,0.1,0.9,0.1c0.1,0,0.2,0.1,0.2,0.2C26.9,22.5,26.8,22.5,26.7,22.5z M24.9,22.2
				C24.9,22.2,24.9,22.2,24.9,22.2c-0.2,0-0.3-0.1-0.4-0.1c-0.2-0.1-0.4-0.2-0.6-0.3c-0.1-0.1-0.1-0.2,0-0.2c0.1-0.1,0.2-0.1,0.2,0
				c0.2,0.1,0.3,0.2,0.5,0.3c0.1,0,0.2,0.1,0.3,0.1c0.1,0,0.1,0.1,0.1,0.2C25,22.2,25,22.2,24.9,22.2z"/>
			<path fill="#FFFFFF" d="M23.1,21.2c-0.1,0-0.2-0.1-0.2-0.2c0-0.2,0-0.3,0-0.5c0-0.1,0.1-0.2,0.2-0.2c0,0,0,0,0,0
				c0.1,0,0.2,0.1,0.2,0.2c0,0.2,0,0.3,0,0.5C23.3,21.1,23.3,21.2,23.1,21.2C23.2,21.2,23.1,21.2,23.1,21.2z"/>
		</g>
		<g>
			<path fill="#FFFFFF" d="M25.4,20c-0.1,0-0.2-0.1-0.2-0.1c0-0.1,0-0.2,0.1-0.2c0.2,0,0.3-0.1,0.5-0.1c0.1,0,0.2,0,0.2,0.1
				c0,0.1,0,0.2-0.1,0.2C25.8,19.9,25.6,19.9,25.4,20C25.5,20,25.4,20,25.4,20z"/>
			<path fill="#FFFFFF" d="M30.9,21.6c-0.2,0-0.3,0-0.5-0.1c-0.1,0-0.2-0.1-0.1-0.2c0-0.1,0.1-0.2,0.2-0.1c0.3,0,0.5,0.1,0.7,0
				c0.1,0,0.1,0,0.2,0c0.1,0,0.2,0,0.2,0.1c0,0.1,0,0.2-0.1,0.2c-0.1,0-0.1,0-0.2,0C31.1,21.6,31,21.6,30.9,21.6z M29.5,21.3
				C29.4,21.3,29.4,21.3,29.5,21.3c-0.2,0-0.3-0.1-0.3-0.1c-0.2-0.1-0.4-0.2-0.6-0.3c-0.1,0-0.1-0.1-0.1-0.2c0-0.1,0.1-0.1,0.2-0.1
				c0.2,0.1,0.4,0.2,0.6,0.2c0.1,0,0.2,0.1,0.3,0.1c0.1,0,0.1,0.1,0.1,0.2C29.6,21.3,29.5,21.3,29.5,21.3z M32,20.9
				C32,20.9,31.9,20.9,32,20.9c-0.2-0.1-0.2-0.2-0.1-0.3c0.1-0.2,0.2-0.5,0.2-0.8c0-0.1,0.1-0.2,0.2-0.2c0.1,0,0.2,0.1,0.2,0.2
				c0,0.4-0.1,0.7-0.3,1C32.1,20.9,32.1,20.9,32,20.9z M27.7,20.6L27.7,20.6c-0.4-0.2-0.6-0.2-0.9-0.3c-0.1,0-0.1-0.1-0.1-0.2
				c0-0.1,0.1-0.1,0.2-0.1c0.3,0.1,0.5,0.2,0.9,0.3l0,0.2L27.7,20.6z M26.8,19.5c-0.1,0-0.1,0-0.2-0.1c0-0.1,0-0.2,0.1-0.2
				c0.2-0.1,0.5-0.3,0.8-0.5c0.1-0.1,0.2,0,0.2,0c0.1,0.1,0,0.2,0,0.2C27.4,19.2,27.1,19.3,26.8,19.5C26.8,19.5,26.8,19.5,26.8,19.5
				z M32.2,19.1c-0.1,0-0.1,0-0.2-0.1c-0.1-0.3-0.2-0.5-0.4-0.7c-0.1-0.1-0.1-0.2,0-0.2c0.1-0.1,0.2-0.1,0.2,0
				c0.2,0.2,0.4,0.6,0.5,0.9C32.4,19,32.3,19.1,32.2,19.1C32.2,19.1,32.2,19.1,32.2,19.1z M28.3,18.4c-0.1,0-0.1,0-0.1-0.1
				c-0.1-0.1,0-0.2,0-0.2c0.2-0.2,0.5-0.4,0.8-0.5c0.1,0,0.2,0,0.2,0.1c0,0.1,0,0.2-0.1,0.2c-0.3,0.2-0.5,0.4-0.8,0.5
				C28.4,18.4,28.4,18.4,28.3,18.4z M30.9,17.8C30.9,17.8,30.9,17.8,30.9,17.8c-0.3-0.1-0.6-0.2-0.9-0.1c-0.1,0-0.2-0.1-0.2-0.2
				c0-0.1,0.1-0.2,0.2-0.2c0.3,0,0.7,0,1,0.2c0.1,0,0.1,0.1,0.1,0.2C31.1,17.8,31,17.8,30.9,17.8z"/>
			<path fill="#FFFFFF" d="M25.9,20C25.9,20,25.9,20,25.9,20c-0.2,0-0.3,0-0.5-0.1c-0.1,0-0.2-0.1-0.2-0.2c0-0.1,0.1-0.2,0.2-0.2
				c0.2,0,0.3,0,0.5,0.1c0.1,0,0.2,0.1,0.1,0.2C26.1,20,26,20,25.9,20z"/>
		</g>
		<g>
			<path fill="#FFFFFF" d="M22.7,25.5C22.7,25.5,22.7,25.5,22.7,25.5c-0.2-0.1-0.4-0.2-0.5-0.3c-0.1,0-0.1-0.1-0.1-0.2
				c0-0.1,0.1-0.1,0.2-0.1c0.2,0.1,0.3,0.2,0.4,0.2c0.1,0,0.1,0.2,0.1,0.2C22.9,25.5,22.8,25.5,22.7,25.5z"/>
			<path fill="#FFFFFF" d="M23.6,30.8c-0.3,0-0.7-0.1-0.9-0.2c-0.1,0-0.1-0.2-0.1-0.2c0-0.1,0.2-0.1,0.2-0.1
				c0.2,0.1,0.5,0.2,0.9,0.2c0.1,0,0.2,0.1,0.2,0.2c0,0.1-0.1,0.2-0.2,0.2C23.7,30.8,23.6,30.8,23.6,30.8z M24.7,30.4
				c-0.1,0-0.1,0-0.1-0.1c-0.1-0.1,0-0.2,0-0.2c0.2-0.2,0.4-0.4,0.5-0.7c0-0.1,0.1-0.1,0.2-0.1c0.1,0,0.1,0.1,0.1,0.2
				C25.3,29.9,25.1,30.2,24.7,30.4C24.8,30.4,24.7,30.4,24.7,30.4z M22.2,29.7c-0.1,0-0.2-0.1-0.2-0.1c0-0.1,0-0.3,0-0.4
				c0-0.2,0-0.4,0.1-0.7c0-0.1,0.1-0.2,0.2-0.1c0.1,0,0.2,0.1,0.1,0.2c0,0.2-0.1,0.4-0.1,0.6c0,0.1,0,0.2,0,0.4
				C22.4,29.6,22.3,29.7,22.2,29.7C22.2,29.7,22.2,29.7,22.2,29.7z M25.3,28.6c-0.1,0-0.2-0.1-0.2-0.1c0-0.2-0.1-0.4-0.2-0.6
				c0-0.1-0.1-0.2-0.1-0.3c0-0.1,0-0.2,0.1-0.2c0.1,0,0.2,0,0.2,0.1c0.1,0.1,0.1,0.2,0.2,0.3c0.1,0.2,0.2,0.5,0.2,0.7
				C25.5,28.5,25.4,28.6,25.3,28.6C25.3,28.6,25.3,28.6,25.3,28.6z M22.5,27.7C22.5,27.7,22.4,27.7,22.5,27.7
				c-0.1,0-0.2-0.1-0.2-0.2l0.1-0.3c0.1-0.2,0.1-0.4,0.1-0.5c0-0.1,0-0.1,0-0.2c0-0.1,0.1-0.2,0.2-0.2c0.1,0,0.2,0.1,0.2,0.2
				c0,0.1,0,0.1,0,0.2c0,0.1-0.1,0.3-0.2,0.6l-0.1,0.3C22.6,27.7,22.5,27.7,22.5,27.7z M24.3,26.8c0,0-0.1,0-0.1-0.1
				c-0.2-0.2-0.5-0.5-0.7-0.7c-0.1-0.1-0.1-0.2,0-0.2c0.1-0.1,0.2-0.1,0.2,0c0.3,0.2,0.5,0.5,0.8,0.7c0.1,0.1,0.1,0.2,0,0.2
				C24.4,26.8,24.4,26.8,24.3,26.8z"/>
			<path fill="#FFFFFF" d="M22.6,25.7c-0.1,0-0.1,0-0.2-0.1c-0.1-0.1-0.1-0.3-0.2-0.4c-0.1-0.1-0.1-0.2,0-0.2c0.1-0.1,0.2-0.1,0.2,0
				c0.1,0.1,0.2,0.3,0.3,0.5C22.8,25.5,22.7,25.6,22.6,25.7C22.6,25.7,22.6,25.7,22.6,25.7z"/>
		</g>
	</g>
</g>
</svg>
