<?xml version="1.0" encoding="utf-8"?>
<!-- Generator: Adobe Illustrator 17.1.0, SVG Export Plug-In . SVG Version: 6.00 Build 0)  -->
<!DOCTYPE svg PUBLIC "-//W3C//DTD SVG 1.1//EN" "http://www.w3.org/Graphics/SVG/1.1/DTD/svg11.dtd">
<svg version="1.1" id="レイヤー_1" xmlns="http://www.w3.org/2000/svg" xmlns:xlink="http://www.w3.org/1999/xlink" x="0px"
	 y="0px" viewBox="0 0 36 36" enable-background="new 0 0 36 36" xml:space="preserve">
<g>
	<circle cx="18" cy="18" r="17.7"/>
	<g>
		
			<linearGradient id="SVGID_1_" gradientUnits="userSpaceOnUse" x1="-1970.6133" y1="117.9177" x2="-1970.6133" y2="135.0305" gradientTransform="matrix(-1 0 0 -1 -1957.3066 144.9641)">
			<stop  offset="0" style="stop-color:#F8EFAB"/>
			<stop  offset="9.305060e-003" style="stop-color:#F8EFAC"/>
			<stop  offset="0.2967" style="stop-color:#FBF6D0"/>
			<stop  offset="0.5662" style="stop-color:#FDFBEA"/>
			<stop  offset="0.8084" style="stop-color:#FFFEFA"/>
			<stop  offset="1" style="stop-color:#FFFFFF"/>
		</linearGradient>
		<circle fill="url(#SVGID_1_)" cx="13.3" cy="18.5" r="8.6"/>
		<linearGradient id="SVGID_2_" gradientUnits="userSpaceOnUse" x1="27.1133" y1="25.3926" x2="27.1133" y2="11.1811">
			<stop  offset="0" style="stop-color:#FA3A00"/>
			<stop  offset="0.2942" style="stop-color:#FC6B00"/>
			<stop  offset="0.8274" style="stop-color:#FFCC00"/>
		</linearGradient>
		<polygon fill="url(#SVGID_2_)" points="32.3,16.2 27.1,11.2 21.9,16.2 25,16.5 23.9,25.4 27.1,25.4 30.3,25.4 29.3,16.5 		"/>
		<g>
			<linearGradient id="SVGID_3_" gradientUnits="userSpaceOnUse" x1="10.4274" y1="24.5965" x2="10.4274" y2="18.4863">
				<stop  offset="0" style="stop-color:#FF7E00"/>
				<stop  offset="0.3161" style="stop-color:#FF8100"/>
				<stop  offset="0.5233" style="stop-color:#FF8900"/>
				<stop  offset="0.6992" style="stop-color:#FE9800"/>
				<stop  offset="0.8567" style="stop-color:#FDAD00"/>
				<stop  offset="1" style="stop-color:#FCC800"/>
			</linearGradient>
			<path fill="url(#SVGID_3_)" d="M12.6,23.6c-0.4,0.8-1.2,1.1-2.3,1c0,0-1.5-0.1-2.1-0.2c0-0.1,0-0.5,0-0.9
				c0.7,0.2,1.3,0.1,1.3-0.6c0-0.5-0.7-0.6-1.3-0.5l0-0.6c0.7,0.1,1.4-0.1,1.3-0.7c0,0-0.2-0.9-1.4-0.4c0-0.4,0-1.5,0-2.3
				c0.7-0.1,2.1-0.1,3,0c0.7,0.1,1.5,0.6,1.6,1.6c0,0,0.1,1-0.6,1.6C12.7,22,13,22.8,12.6,23.6z"/>
			<linearGradient id="SVGID_4_" gradientUnits="userSpaceOnUse" x1="15.902" y1="24.6835" x2="15.902" y2="18.5251">
				<stop  offset="0" style="stop-color:#FF7E00"/>
				<stop  offset="0.3161" style="stop-color:#FF8100"/>
				<stop  offset="0.5233" style="stop-color:#FF8900"/>
				<stop  offset="0.6992" style="stop-color:#FE9800"/>
				<stop  offset="0.8567" style="stop-color:#FDAD00"/>
				<stop  offset="1" style="stop-color:#FCC800"/>
			</linearGradient>
			<path fill="url(#SVGID_4_)" d="M13.6,23.5c-0.5-1.1-0.3-2.9,0.2-3.8c0.5-0.9,1-1.1,1.9-1.2c1.1,0,1.7,0.3,2.2,1
				c0.5,0.8,0.8,2.2,0.3,3.7c-0.3,0.9-1.1,1.5-2.2,1.5C15.1,24.7,14.1,24.6,13.6,23.5z M14.9,21.3c0,0.3,0,0.8,0.4,0.9
				c0.4,0.1,0.8-0.1,0.8-0.6c0-0.4-0.1-0.9-0.5-1C15.1,20.6,14.9,21,14.9,21.3z"/>
		</g>
		<linearGradient id="SVGID_5_" gradientUnits="userSpaceOnUse" x1="16.0127" y1="9.9336" x2="16.0127" y2="18.49">
			<stop  offset="0" style="stop-color:#FF8300"/>
			<stop  offset="0.1626" style="stop-color:#FE7200"/>
			<stop  offset="0.4819" style="stop-color:#FB4700"/>
			<stop  offset="0.5708" style="stop-color:#FA3A00"/>
		</linearGradient>
		<path fill="url(#SVGID_5_)" d="M13.3,9.9v8.6l5.4-6.6C17.2,10.7,15.4,9.9,13.3,9.9z"/>
	</g>
</g>
</svg>
