<?xml version="1.0" encoding="utf-8"?>
<!-- Generator: Adobe Illustrator 17.1.0, SVG Export Plug-In . SVG Version: 6.00 Build 0)  -->
<!DOCTYPE svg PUBLIC "-//W3C//DTD SVG 1.1//EN" "http://www.w3.org/Graphics/SVG/1.1/DTD/svg11.dtd">
<svg version="1.1" id="レイヤー_1" xmlns="http://www.w3.org/2000/svg" xmlns:xlink="http://www.w3.org/1999/xlink" x="0px"
	 y="0px" viewBox="0 0 36 36" enable-background="new 0 0 36 36" xml:space="preserve">
<g>
	<circle cx="18" cy="18" r="17.7"/>
	<g>
		<g>
			<linearGradient id="SVGID_1_" gradientUnits="userSpaceOnUse" x1="7.9674" y1="16.7335" x2="26.3692" y2="16.7335">
				<stop  offset="0" style="stop-color:#23FFB9"/>
				<stop  offset="0.1944" style="stop-color:#1EF0BA"/>
				<stop  offset="0.5699" style="stop-color:#11C8BE"/>
				<stop  offset="1" style="stop-color:#0093C2"/>
			</linearGradient>
			<path fill="url(#SVGID_1_)" d="M15.6,27.1c5.9,0,10.8-4.8,10.8-10.7c0-4.8-3.5-8.8-7.9-10.1v4c2.3,0.6,3.9,2.7,3.9,5.2
				c0,3-2.4,5.4-5.4,5.4c-1.4,0-2.6-0.5-3.6-1.3L8,23.7C9.8,25.8,12.5,27.1,15.6,27.1z"/>
			<g>
				<defs>
					<path id="SVGID_469_" d="M15.6,27.1c5.9,0,10.8-4.9,10.8-10.8c0-4.8-3.5-8.7-7.9-10v4c2.3,0.6,3.9,2.7,3.9,5.2
						c0,3-2.4,5.4-5.4,5.4c-1.4,0-2.6-0.5-3.6-1.3L8,23.7C9.8,25.8,12.5,27.1,15.6,27.1z"/>
				</defs>
				<clipPath id="SVGID_2_">
					<use xlink:href="#SVGID_469_"  overflow="visible"/>
				</clipPath>
				<circle clip-path="url(#SVGID_2_)" fill="#0088C3" cx="19.5" cy="25.7" r="1.3"/>
				<circle clip-path="url(#SVGID_2_)" fill="#0088C3" cx="24.9" cy="11" r="1.3"/>
				<circle clip-path="url(#SVGID_2_)" fill="#0088C3" cx="14.8" cy="20.9" r="2.2"/>
				<circle clip-path="url(#SVGID_2_)" fill="#0088C3" cx="19" cy="10.1" r="2.2"/>
				<circle clip-path="url(#SVGID_2_)" fill="#0088C3" cx="23.5" cy="22.1" r="1.8"/>
				<circle clip-path="url(#SVGID_2_)" fill="#0088C3" cx="24" cy="14.6" r="0.7"/>
				<circle clip-path="url(#SVGID_2_)" fill="#0088C3" cx="12.2" cy="24.4" r="0.8"/>
			</g>
			<g>
				<linearGradient id="SVGID_3_" gradientUnits="userSpaceOnUse" x1="15.662" y1="27.9972" x2="15.662" y2="5.79">
					<stop  offset="0" style="stop-color:#F8EFAB"/>
					<stop  offset="9.305060e-003" style="stop-color:#F8EFAC"/>
					<stop  offset="0.2967" style="stop-color:#FBF6D0"/>
					<stop  offset="0.5662" style="stop-color:#FDFBEA"/>
					<stop  offset="0.8084" style="stop-color:#FFFEFA"/>
					<stop  offset="1" style="stop-color:#FFFFFF"/>
				</linearGradient>
				<path fill="url(#SVGID_3_)" d="M17.5,5.8v5.3c2.2,0.3,4,2.2,4,4.5c0,2.5-2,4.5-4.5,4.5s-4.5-2-4.5-4.5c0,0,0-0.1,0-0.1H4.3
					c0,0.4-0.1,0.7-0.1,1.1c0,6.3,5,11.5,11.4,11.5c6.3,0,11.5-5.1,11.5-11.5C27.1,10.9,23.4,6.8,17.5,5.8z M15.6,27.1
					c-5.9,0-10.4-4.8-10.4-10.7h6.4c0.4,2.5,2.6,4.5,5.3,4.5c3,0,5.4-2.4,5.4-5.4c0-2.5-1.6-4.6-3.9-5.2V6.9
					c4.9,1.2,7.8,4.8,7.8,9.6C26.2,22.4,21.5,27.1,15.6,27.1z"/>
			</g>
		</g>
		<g>
			<linearGradient id="SVGID_4_" gradientUnits="userSpaceOnUse" x1="25.7744" y1="30.4751" x2="25.7744" y2="18.0945">
				<stop  offset="0" style="stop-color:#F8EFAB"/>
				<stop  offset="9.305060e-003" style="stop-color:#F8EFAC"/>
				<stop  offset="0.2967" style="stop-color:#FBF6D0"/>
				<stop  offset="0.5662" style="stop-color:#FDFBEA"/>
				<stop  offset="0.8084" style="stop-color:#FFFEFA"/>
				<stop  offset="1" style="stop-color:#FFFFFF"/>
			</linearGradient>
			<circle fill="url(#SVGID_4_)" cx="25.8" cy="24.3" r="6.2"/>
			<linearGradient id="SVGID_5_" gradientUnits="userSpaceOnUse" x1="25.774" y1="29.2348" x2="25.774" y2="19.3351">
				<stop  offset="0.2301" style="stop-color:#FA3A00"/>
				<stop  offset="0.3501" style="stop-color:#FB4700"/>
				<stop  offset="0.7807" style="stop-color:#FE7200"/>
				<stop  offset="1" style="stop-color:#FF8300"/>
			</linearGradient>
			<circle fill="url(#SVGID_5_)" cx="25.8" cy="24.3" r="4.9"/>
			<g>
				<linearGradient id="SVGID_6_" gradientUnits="userSpaceOnUse" x1="24.5623" y1="22.8671" x2="28.6568" y2="22.8671">
					<stop  offset="0" style="stop-color:#3B3D00"/>
					<stop  offset="7.713217e-002" style="stop-color:#2F3100"/>
					<stop  offset="0.2544" style="stop-color:#1A1B00"/>
					<stop  offset="0.4498" style="stop-color:#0C0C00"/>
					<stop  offset="0.6753" style="stop-color:#030300"/>
					<stop  offset="1" style="stop-color:#000000"/>
				</linearGradient>
				<path fill="url(#SVGID_6_)" d="M28.6,25.6c-1.6,0-3.9-0.2-3.9-0.2c0-2.5-0.2-5.4-0.2-5.4c0.9,0,2.2,0,2.2,0
					c-0.1,1.7-0.2,3.6-0.2,3.6c0.4,0,2.1-0.2,2.1-0.2C28.7,25.1,28.6,25.6,28.6,25.6z"/>
			</g>
		</g>
	</g>
</g>
</svg>
