<?xml version="1.0" encoding="utf-8"?>
<!-- Generator: Adobe Illustrator 17.1.0, SVG Export Plug-In . SVG Version: 6.00 Build 0)  -->
<!DOCTYPE svg PUBLIC "-//W3C//DTD SVG 1.1//EN" "http://www.w3.org/Graphics/SVG/1.1/DTD/svg11.dtd">
<svg version="1.1" id="レイヤー_1" xmlns="http://www.w3.org/2000/svg" xmlns:xlink="http://www.w3.org/1999/xlink" x="0px"
	 y="0px" viewBox="0 0 36 36" enable-background="new 0 0 36 36" xml:space="preserve">
<g>
	<circle cx="18" cy="18" r="17.7"/>
	<g>
		<g>
			<path fill="#FFFFFF" d="M16.8,20.8C16.8,20.8,16.7,20.8,16.8,20.8c-0.2,0-0.2-0.1-0.2-0.2c0-0.1,0.1-0.2,0.2-0.2c0,0,0,0,0.1,0
				c0.2,0,0.4-0.1,0.6-0.4c0.1-0.1,0.2-0.1,0.2,0c0.1,0.1,0.1,0.2,0,0.2C17.4,20.7,17.1,20.8,16.8,20.8z M19.3,20.8
				c-0.3,0-0.5-0.1-0.7-0.3c-0.1-0.1-0.1-0.2,0-0.2c0.1-0.1,0.2-0.1,0.2,0c0.1,0.1,0.3,0.2,0.5,0.2h0c0.1,0,0.2,0,0.2,0
				c0.1,0,0.2,0,0.2,0.1c0,0.1,0,0.2-0.1,0.2C19.5,20.8,19.4,20.8,19.3,20.8C19.3,20.8,19.3,20.8,19.3,20.8z M14.1,20.3
				C14.1,20.3,14.1,20.3,14.1,20.3c-0.5-0.1-0.7-0.5-0.7-0.9l0.2,0l0.2,0c0,0.3,0.1,0.5,0.4,0.5c0.1,0,0.1,0.1,0.1,0.2
				C14.2,20.3,14.2,20.3,14.1,20.3z M21.2,20.3C21.2,20.3,21.2,20.3,21.2,20.3c-0.4-0.1-0.7-0.3-0.9-0.6c0,0,0-0.1,0-0.1
				c0,0.1,0,0.2,0,0.2c0,0.1-0.1,0.2-0.2,0.1c-0.1,0-0.2-0.1-0.1-0.2c0-0.2,0-0.3,0-0.5c0-0.2,0-0.3,0-0.4c0-0.1,0.1-0.2,0.2-0.2
				c0.1,0,0.2,0.1,0.2,0.2c0,0.1,0,0.3,0,0.4c0,0.1,0,0.2,0,0.3c0,0,0-0.1,0-0.1c0.1-0.1,0.2-0.1,0.2,0c0.2,0.2,0.5,0.4,0.7,0.5
				c0.1,0,0.1,0.1,0.1,0.2C21.4,20.2,21.3,20.3,21.2,20.3z M22.2,20.2c-0.1,0-0.1,0-0.1-0.1c-0.1-0.1,0-0.2,0-0.2
				c0.2-0.1,0.3-0.3,0.3-0.5c0-0.1,0-0.1,0-0.2c0-0.1,0-0.2,0.1-0.2c0.1,0,0.2,0,0.2,0.1c0,0.1,0,0.2,0,0.3
				C22.7,19.7,22.5,20,22.2,20.2C22.3,20.2,22.2,20.2,22.2,20.2z M16,20.2c-0.1,0-0.1,0-0.2-0.1c0-0.1-0.1-0.3-0.1-0.5
				c-0.2,0.2-0.4,0.4-0.7,0.5c-0.1,0-0.2,0-0.2-0.1c0-0.1,0-0.2,0.1-0.2c0.3-0.1,0.5-0.4,0.7-0.6c0-0.1,0.1-0.1,0.1-0.1
				c0,0,0-0.1,0-0.1c0-0.1,0.1-0.2,0.2-0.2c0.1,0,0.2,0.1,0.2,0.2c0,0.1,0,0.1,0,0.2c0,0.3,0,0.5,0.1,0.7
				C16.2,20.1,16.2,20.2,16,20.2C16.1,20.2,16.1,20.2,16,20.2z M18.2,19.7c-0.1,0-0.1,0-0.2-0.1c0,0,0-0.1,0-0.1c0,0-0.1,0-0.1,0
				c-0.1,0-0.1-0.1-0.1-0.2c0-0.1,0.1-0.2,0.1-0.3c0-0.1,0.1-0.2,0.2-0.2c0.1,0,0.2,0.1,0.2,0.2c0,0.1,0.1,0.3,0.1,0.5
				C18.4,19.6,18.3,19.7,18.2,19.7C18.2,19.7,18.2,19.7,18.2,19.7z M13.9,18.7C13.9,18.7,13.9,18.7,13.9,18.7
				c-0.2-0.1-0.2-0.2-0.1-0.3c0.2-0.3,0.3-0.6,0.4-0.8c0-0.1,0.1-0.1,0.2-0.1c0.1,0,0.1,0.1,0.1,0.2c-0.1,0.3-0.3,0.6-0.5,0.9
				C14,18.7,14,18.7,13.9,18.7z M22,18.5c-0.1,0-0.1,0-0.1-0.1c-0.2-0.3-0.3-0.6-0.5-0.9c0-0.1,0-0.2,0.1-0.2c0.1,0,0.2,0,0.2,0.1
				c0.1,0.3,0.3,0.6,0.4,0.8C22.2,18.3,22.2,18.4,22,18.5C22.1,18.5,22,18.5,22,18.5z M14.6,16.9C14.6,16.9,14.6,16.9,14.6,16.9
				c-0.1,0-0.2-0.1-0.2-0.2c0-0.2,0-0.4,0-0.6c0-0.1,0-0.2,0-0.3c0-0.1,0.1-0.2,0.2-0.2c0.1,0,0.2,0.1,0.2,0.2c0,0.1,0,0.2,0,0.4
				c0,0.2,0,0.4-0.1,0.7C14.8,16.8,14.7,16.9,14.6,16.9z M21.3,16.7c-0.1,0-0.2-0.1-0.2-0.1c0-0.2,0-0.3,0-0.5c0-0.2,0-0.4,0-0.6
				c0-0.1,0.1-0.2,0.2-0.1c0.1,0,0.2,0.1,0.1,0.2c0,0.2,0,0.3,0,0.5c0,0.1,0,0.3,0,0.4C21.5,16.6,21.4,16.7,21.3,16.7
				C21.3,16.7,21.3,16.7,21.3,16.7z M14.5,14.9c-0.1,0-0.1,0-0.2-0.1c-0.1-0.4-0.3-0.7-0.4-0.8c-0.1-0.1,0-0.2,0-0.2
				c0.1-0.1,0.2,0,0.2,0c0.1,0.2,0.3,0.5,0.5,0.9C14.7,14.8,14.6,14.9,14.5,14.9C14.5,14.9,14.5,14.9,14.5,14.9z M21.6,14.8
				C21.6,14.8,21.5,14.8,21.6,14.8c-0.2-0.1-0.2-0.2-0.2-0.2c0.2-0.5,0.5-0.8,0.5-0.9c0.1-0.1,0.2-0.1,0.2,0c0.1,0.1,0.1,0.2,0,0.2
				c-0.1,0.1-0.3,0.4-0.5,0.8C21.7,14.7,21.7,14.8,21.6,14.8z M13.2,13.7C13.1,13.7,13.1,13.7,13.2,13.7c-0.5-0.1-0.8-0.3-1-0.4
				c-0.1,0-0.1-0.2-0.1-0.2c0-0.1,0.2-0.1,0.2-0.1c0.3,0.2,0.6,0.3,0.9,0.4c0.1,0,0.1,0.1,0.1,0.2C13.3,13.6,13.2,13.7,13.2,13.7z
				 M23,13.6c-0.1,0-0.1,0-0.2-0.1c0-0.1,0-0.2,0.1-0.2c0.4-0.1,0.7-0.2,0.9-0.4c0.1-0.1,0.2,0,0.2,0c0.1,0.1,0,0.2,0,0.2
				C23.8,13.4,23.5,13.5,23,13.6C23.1,13.6,23.1,13.6,23,13.6z M11.7,12.6C11.7,12.6,11.7,12.6,11.7,12.6c-0.1,0-0.2-0.1-0.2-0.2
				c0.1-0.2,0.3-0.5,0.7-0.8c0.1-0.1,0.2-0.1,0.2,0c0.1,0.1,0.1,0.2,0,0.2c-0.3,0.2-0.5,0.5-0.6,0.7C11.9,12.5,11.8,12.6,11.7,12.6z
				 M24.3,12.4c-0.1,0-0.1,0-0.1-0.1c-0.1-0.2-0.3-0.4-0.6-0.7c0,0,0-0.1-0.1-0.1c0,0-0.1,0-0.1,0c-0.2-0.2-0.4-0.4-0.7-0.8
				c-0.1-0.1,0-0.2,0-0.2c0.1-0.1,0.2,0,0.2,0c0.2,0.3,0.4,0.6,0.6,0.7c0,0,0,0.1,0.1,0.1c0,0,0.1,0,0.1,0c0.3,0.3,0.6,0.5,0.7,0.7
				C24.5,12.3,24.4,12.4,24.3,12.4C24.3,12.4,24.3,12.4,24.3,12.4z M13,11.1c0,0-0.1,0-0.1,0c-0.1-0.1-0.1-0.2,0-0.2
				c0.2-0.2,0.3-0.5,0.6-0.8c0.1-0.1,0.2-0.1,0.2,0c0.1,0.1,0.1,0.2,0,0.2c-0.2,0.3-0.4,0.6-0.6,0.8C13.1,11.1,13.1,11.1,13,11.1z
				 M22.3,10c-0.1,0-0.1,0-0.1-0.1c-0.2-0.3-0.3-0.5-0.5-0.8c-0.1-0.1,0-0.2,0.1-0.2c0.1-0.1,0.2,0,0.2,0.1c0.2,0.3,0.4,0.6,0.5,0.8
				C22.5,9.9,22.5,10,22.3,10C22.4,10,22.3,10,22.3,10z M14.1,9.5C14.1,9.5,14.1,9.5,14.1,9.5C14,9.4,13.9,9.3,14,9.2l0.5-0.8
				c0.1-0.1,0.2-0.1,0.2-0.1c0.1,0.1,0.1,0.2,0.1,0.2l-0.5,0.8C14.2,9.5,14.2,9.5,14.1,9.5z M21.2,8.4c-0.1,0-0.1,0-0.1-0.1
				c-0.2-0.3-0.4-0.6-0.5-0.8c-0.1-0.1,0-0.2,0-0.2c0.1-0.1,0.2,0,0.2,0c0.2,0.3,0.4,0.5,0.5,0.8C21.4,8.2,21.4,8.3,21.2,8.4
				C21.3,8.4,21.3,8.4,21.2,8.4z M15.2,7.8C15.1,7.8,15.1,7.8,15.2,7.8C15,7.7,15,7.6,15,7.6c0.2-0.3,0.4-0.6,0.6-0.8
				c0.1-0.1,0.2-0.1,0.2,0c0.1,0.1,0.1,0.2,0,0.2c-0.2,0.3-0.4,0.5-0.6,0.8C15.3,7.8,15.2,7.8,15.2,7.8z M20.1,6.8
				c-0.1,0-0.1,0-0.1-0.1c-0.2-0.3-0.4-0.5-0.6-0.7c-0.1-0.1-0.1-0.2,0-0.2c0.1-0.1,0.2-0.1,0.2,0c0.2,0.2,0.4,0.5,0.6,0.8
				c0.1,0.1,0,0.2,0,0.2C20.2,6.7,20.2,6.8,20.1,6.8z M16.3,6.2c0,0-0.1,0-0.1,0c-0.1-0.1-0.1-0.2,0-0.2c0.3-0.3,0.5-0.5,0.7-0.7
				c0.1-0.1,0.2-0.1,0.2,0c0.1,0.1,0.1,0.2,0,0.2c-0.2,0.2-0.4,0.4-0.7,0.7C16.4,6.2,16.4,6.2,16.3,6.2z M18.8,5.3
				C18.8,5.3,18.7,5.3,18.8,5.3c-0.4-0.2-0.6-0.3-0.9-0.3c-0.1,0-0.2,0-0.2-0.1c0-0.1,0-0.2,0.1-0.2c0.3-0.1,0.7,0,1,0.3
				c0.1,0.1,0.1,0.2,0,0.2C18.9,5.3,18.8,5.3,18.8,5.3z"/>
			
				<linearGradient id="SVGID_1_" gradientUnits="userSpaceOnUse" x1="9.268" y1="306.4829" x2="9.268" y2="300.4638" gradientTransform="matrix(1 0 0 1 8.7617 -290.7329)">
				<stop  offset="0" style="stop-color:#000000"/>
				<stop  offset="0.3247" style="stop-color:#010003"/>
				<stop  offset="0.5502" style="stop-color:#04000C"/>
				<stop  offset="0.7456" style="stop-color:#09001B"/>
				<stop  offset="0.9229" style="stop-color:#0F0031"/>
				<stop  offset="1" style="stop-color:#13003D"/>
			</linearGradient>
			<path fill="url(#SVGID_1_)" d="M19.7,15.8c-1.1,0-1.2-0.6-1.7-0.6c-0.5,0-0.6,0.6-1.7,0.6c-1.1,0-2-1.4-2-3c0-1.6,0.8-3.2,2.3-3
				c0.8,0.1,1,0.5,1.3,0.5c0.3,0,0.5-0.4,1.3-0.5c1.6-0.2,2.3,1.4,2.3,3C21.7,14.4,20.8,15.8,19.7,15.8z"/>
			<linearGradient id="SVGID_2_" gradientUnits="userSpaceOnUse" x1="18.0302" y1="14.7461" x2="18.0302" y2="10.2213">
				<stop  offset="0" style="stop-color:#F8EFAB"/>
				<stop  offset="9.305060e-003" style="stop-color:#F8EFAC"/>
				<stop  offset="0.2967" style="stop-color:#FBF6D0"/>
				<stop  offset="0.5662" style="stop-color:#FDFBEA"/>
				<stop  offset="0.8084" style="stop-color:#FFFEFA"/>
				<stop  offset="1" style="stop-color:#FFFFFF"/>
			</linearGradient>
			<path fill="url(#SVGID_2_)" d="M19.5,10.2c-0.6,0-1.2,0.5-1.5,1.3c-0.3-0.8-0.8-1.3-1.5-1.3c-0.9,0-1.6,1-1.6,2.3
				c0,1.2,0.7,2.3,1.6,2.3c0.6,0,1.2-0.5,1.5-1.3c0.3,0.8,0.8,1.3,1.5,1.3c0.9,0,1.6-1,1.6-2.3C21.1,11.2,20.4,10.2,19.5,10.2z"/>
			
				<linearGradient id="SVGID_3_" gradientUnits="userSpaceOnUse" x1="7.9262" y1="303.675" x2="7.9262" y2="301.1599" gradientTransform="matrix(1 0 0 1 8.7617 -290.7329)">
				<stop  offset="0" style="stop-color:#000000"/>
				<stop  offset="0.3247" style="stop-color:#010003"/>
				<stop  offset="0.5502" style="stop-color:#04000C"/>
				<stop  offset="0.7456" style="stop-color:#09001B"/>
				<stop  offset="0.9229" style="stop-color:#0F0031"/>
				<stop  offset="1" style="stop-color:#13003D"/>
			</linearGradient>
			<ellipse fill="url(#SVGID_3_)" cx="16.7" cy="11.7" rx="1" ry="1.3"/>
			
				<linearGradient id="SVGID_4_" gradientUnits="userSpaceOnUse" x1="10.6112" y1="303.675" x2="10.6112" y2="301.1599" gradientTransform="matrix(1 0 0 1 8.7617 -290.7329)">
				<stop  offset="0" style="stop-color:#000000"/>
				<stop  offset="0.3247" style="stop-color:#010003"/>
				<stop  offset="0.5502" style="stop-color:#04000C"/>
				<stop  offset="0.7456" style="stop-color:#09001B"/>
				<stop  offset="0.9229" style="stop-color:#0F0031"/>
				<stop  offset="1" style="stop-color:#13003D"/>
			</linearGradient>
			<ellipse fill="url(#SVGID_4_)" cx="19.4" cy="11.7" rx="1" ry="1.3"/>
		</g>
		<g>
			<path fill="#FFFFFF" d="M23,28.3C23,28.3,23,28.3,23,28.3c-0.1-0.1-0.2-0.1-0.2-0.2c0-0.1,0.1-0.3,0.1-0.5c0-0.1,0.1-0.2,0.2-0.2
				c0.1,0,0.1,0,0.1,0.1c0,0,0.1,0,0.1,0c0.1,0.1,0.1,0.2,0,0.2L23.4,28c-0.1,0.1-0.1,0.2-0.2,0.3C23.1,28.3,23.1,28.3,23,28.3z"/>
			<path fill="#FFFFFF" d="M23.2,26.9c-0.1,0-0.2-0.1-0.2-0.2c0-0.3,0-0.6-0.1-0.9c0-0.1,0-0.2,0.1-0.2c0.1,0,0.2,0,0.2,0.1
				c0,0.3,0.1,0.6,0.1,0.9C23.3,26.8,23.3,26.9,23.2,26.9C23.2,26.9,23.2,26.9,23.2,26.9z M19.9,26.5C19.9,26.5,19.9,26.5,19.9,26.5
				c-0.1,0-0.2-0.1-0.2-0.2c0.1-0.3,0.2-0.6,0.3-0.9c0-0.1,0.1-0.1,0.2-0.1c0.1,0,0.1,0.1,0.1,0.2c-0.1,0.2-0.2,0.5-0.3,0.8
				C20.1,26.4,20,26.5,19.9,26.5z M22.8,25.1c-0.1,0-0.1,0-0.2-0.1c-0.1-0.3-0.3-0.5-0.5-0.6c-0.1-0.1-0.1-0.2-0.1-0.2
				c0.1-0.1,0.2-0.1,0.2-0.1c0.3,0.2,0.5,0.4,0.6,0.8C23,25,23,25.1,22.8,25.1C22.9,25.1,22.9,25.1,22.8,25.1z M20.7,24.8
				c0,0-0.1,0-0.1,0c-0.1-0.1-0.1-0.2,0-0.2c0.2-0.3,0.5-0.5,0.8-0.6c0.1,0,0.2,0,0.2,0.1c0,0.1,0,0.2-0.1,0.2
				c-0.2,0.1-0.4,0.2-0.6,0.5C20.8,24.8,20.7,24.8,20.7,24.8z"/>
			<path fill="#FFFFFF" d="M19.6,27.9C19.6,27.9,19.6,27.9,19.6,27.9c-0.2-0.1-0.4-0.2-0.5-0.4c-0.1-0.1,0-0.2,0-0.2
				c0.1-0.1,0.2,0,0.2,0c0,0,0.1,0.1,0.1,0.1c0-0.1,0-0.2,0-0.2c0-0.1,0.1-0.2,0.2-0.1c0.1,0,0.2,0.1,0.1,0.2
				c-0.1,0.3-0.1,0.5-0.1,0.5C19.8,27.8,19.8,27.8,19.6,27.9C19.7,27.9,19.7,27.9,19.6,27.9z"/>
			<path fill="#FFFFFF" d="M18.9,26.6c-0.1,0-0.1-0.1-0.2-0.1c-0.1-0.3-0.1-0.6-0.2-1c0-0.1,0-0.2,0.1-0.2c0.1,0,0.2,0,0.2,0.1
				c0.1,0.4,0.1,0.7,0.2,1C19.1,26.5,19,26.6,18.9,26.6C18.9,26.6,18.9,26.6,18.9,26.6z M17.2,26.5C17.2,26.5,17.1,26.5,17.2,26.5
				c-0.1,0-0.2-0.1-0.2-0.2c0.1-0.3,0.1-0.6,0.2-1c0-0.1,0.1-0.2,0.2-0.1c0.1,0,0.2,0.1,0.1,0.2c-0.1,0.4-0.1,0.7-0.2,1
				C17.3,26.4,17.2,26.5,17.2,26.5z M18.5,24.6c-0.1,0-0.2-0.1-0.2-0.2c0-0.3-0.1-0.7-0.1-1c0-0.1,0.1-0.2,0.2-0.2
				c0.1,0,0.2,0.1,0.2,0.2c0,0.3,0.1,0.7,0.1,1C18.7,24.5,18.6,24.6,18.5,24.6C18.5,24.6,18.5,24.6,18.5,24.6z M17.5,24.5
				C17.5,24.5,17.5,24.5,17.5,24.5c-0.1,0-0.2-0.1-0.2-0.2c0-0.3,0.1-0.7,0.1-1c0-0.1,0.1-0.2,0.2-0.1c0.1,0,0.2,0.1,0.1,0.2
				c0,0.3-0.1,0.7-0.1,1C17.7,24.4,17.6,24.5,17.5,24.5z M18.3,22.5c-0.1,0-0.2-0.1-0.2-0.2c0-0.3-0.1-0.7-0.1-1c0,0,0,0,0,0
				c0,0.2-0.1,0.5-0.1,0.9c0,0.1-0.1,0.2-0.2,0.1c-0.1,0-0.2-0.1-0.1-0.2c0.1-0.5,0.1-0.8,0.2-1c0-0.1,0.1-0.2,0.2-0.1
				c0.1,0,0.2,0.1,0.1,0.2c0,0,0.1-0.1,0.1-0.1c0.1,0,0.2,0.1,0.2,0.1c0,0.3,0.1,0.7,0.1,1C18.5,22.5,18.5,22.5,18.3,22.5
				C18.4,22.5,18.3,22.5,18.3,22.5z"/>
			<path fill="#FFFFFF" d="M16.6,27.9C16.6,27.9,16.5,27.9,16.6,27.9c-0.1-0.1-0.2-0.1-0.2-0.1c0,0,0-0.2-0.1-0.5
				c0-0.1,0-0.2,0.1-0.2c0.1,0,0.2,0,0.2,0.1c0,0,0,0.1,0,0.1c0,0,0,0,0,0c0-0.1,0.1-0.1,0.2-0.1c0.1,0,0.1,0.1,0.1,0.2
				C16.9,27.7,16.8,27.8,16.6,27.9C16.6,27.9,16.6,27.9,16.6,27.9z"/>
			<path fill="#FFFFFF" d="M13.1,26.9C13.1,26.9,13.1,26.9,13.1,26.9c-0.1,0-0.2-0.1-0.2-0.2c0-0.3,0-0.6,0.1-0.9
				c0-0.1,0.1-0.2,0.2-0.1c0.1,0,0.2,0.1,0.1,0.2c0,0.3-0.1,0.6-0.1,0.9C13.3,26.8,13.2,26.9,13.1,26.9z M16.3,26.5
				c-0.1,0-0.1,0-0.2-0.1c-0.1-0.3-0.2-0.6-0.3-0.8c0-0.1,0-0.2,0.1-0.2c0.1,0,0.2,0,0.2,0.1c0.1,0.3,0.2,0.6,0.3,0.9
				C16.5,26.4,16.4,26.5,16.3,26.5C16.3,26.5,16.3,26.5,16.3,26.5z M13.4,25.1C13.4,25.1,13.4,25.1,13.4,25.1
				c-0.2-0.1-0.2-0.2-0.2-0.2c0.2-0.4,0.4-0.6,0.6-0.8c0.1-0.1,0.2,0,0.2,0.1c0.1,0.1,0,0.2-0.1,0.2c-0.2,0.1-0.4,0.3-0.5,0.6
				C13.5,25.1,13.5,25.1,13.4,25.1z M15.6,24.8c-0.1,0-0.1,0-0.1-0.1c-0.2-0.3-0.4-0.4-0.6-0.5c-0.1,0-0.1-0.1-0.1-0.2
				c0-0.1,0.1-0.1,0.2-0.1c0.3,0.1,0.6,0.3,0.8,0.6c0.1,0.1,0,0.2,0,0.2C15.6,24.8,15.6,24.8,15.6,24.8z"/>
			<path fill="#FFFFFF" d="M13.2,28.3c-0.1,0-0.1,0-0.1-0.1c-0.1-0.1-0.1-0.2-0.2-0.3l-0.1-0.1c-0.1-0.1,0-0.2,0-0.2
				c0,0,0.1,0,0.1,0c0,0,0.1-0.1,0.1-0.1c0.1,0,0.2,0.1,0.2,0.2c0,0.2,0,0.3,0.1,0.5C13.4,28.2,13.4,28.3,13.2,28.3
				C13.3,28.3,13.2,28.3,13.2,28.3z"/>
			<path fill="#FFFFFF" d="M18.6,31.3c-0.1,0-0.2-0.1-0.2-0.2c0-0.1,0.1-0.2,0.2-0.2c0.3,0,0.6,0,1,0c0.1,0,0.2,0.1,0.2,0.2
				c0,0.1-0.1,0.2-0.2,0.2C19.2,31.2,18.9,31.3,18.6,31.3C18.6,31.3,18.6,31.3,18.6,31.3z M17.6,31.3C17.6,31.3,17.6,31.3,17.6,31.3
				c-0.3,0-0.6,0-1,0c-0.1,0-0.2-0.1-0.2-0.2c0-0.1,0.1-0.2,0.2-0.2c0.3,0,0.6,0,1,0c0.1,0,0.2,0.1,0.2,0.2
				C17.8,31.2,17.7,31.3,17.6,31.3z M20.5,31.2c-0.1,0-0.2-0.1-0.2-0.2c0-0.1,0.1-0.2,0.2-0.2c0.3,0,0.6-0.1,1-0.1
				c0.1,0,0.2,0.1,0.2,0.1c0,0.1-0.1,0.2-0.1,0.2C21.2,31.1,20.9,31.1,20.5,31.2C20.5,31.2,20.5,31.2,20.5,31.2z M15.7,31.2
				C15.7,31.2,15.7,31.2,15.7,31.2c-0.3,0-0.7-0.1-1-0.1c-0.1,0-0.2-0.1-0.1-0.2c0-0.1,0.1-0.2,0.2-0.1c0.3,0,0.6,0.1,1,0.1
				c0.1,0,0.2,0.1,0.2,0.2C15.9,31.1,15.8,31.2,15.7,31.2z M22.5,30.9c-0.1,0-0.2-0.1-0.2-0.1c0-0.1,0-0.2,0.1-0.2
				c0.3-0.1,0.6-0.1,0.9-0.2c0.1,0,0.2,0,0.2,0.1c0,0.1,0,0.2-0.1,0.2C23.1,30.8,22.8,30.9,22.5,30.9C22.5,30.9,22.5,30.9,22.5,30.9
				z M13.8,30.9C13.8,30.9,13.7,30.9,13.8,30.9c-0.4-0.1-0.7-0.1-1-0.2c-0.1,0-0.2-0.1-0.1-0.2c0-0.1,0.1-0.2,0.2-0.1
				c0.3,0.1,0.6,0.1,0.9,0.2c0.1,0,0.2,0.1,0.1,0.2C13.9,30.9,13.8,30.9,13.8,30.9z M24.4,30.5c-0.1,0-0.1,0-0.2-0.1
				c0-0.1,0-0.2,0.1-0.2c0.3-0.1,0.6-0.2,0.9-0.3c0.1,0,0.2,0,0.2,0.1c0,0.1,0,0.2-0.1,0.2C25,30.3,24.7,30.4,24.4,30.5
				C24.4,30.5,24.4,30.5,24.4,30.5z M11.9,30.5C11.9,30.5,11.8,30.5,11.9,30.5c-0.4-0.1-0.7-0.2-1-0.3c-0.1,0-0.1-0.1-0.1-0.2
				c0-0.1,0.1-0.1,0.2-0.1c0.3,0.1,0.6,0.2,0.9,0.3c0.1,0,0.1,0.1,0.1,0.2C12,30.4,11.9,30.5,11.9,30.5z M26.2,29.8
				c-0.1,0-0.1,0-0.1-0.1c0-0.1,0-0.2,0.1-0.2c0.3-0.2,0.5-0.3,0.7-0.6c0.1-0.1,0.2-0.1,0.2,0c0.1,0.1,0.1,0.2,0,0.2
				C26.8,29.4,26.5,29.6,26.2,29.8C26.2,29.8,26.2,29.8,26.2,29.8z M10.1,29.8C10,29.8,10,29.8,10.1,29.8c-0.4-0.2-0.6-0.4-0.9-0.6
				c-0.1-0.1-0.1-0.2,0-0.2c0.1-0.1,0.2-0.1,0.2,0c0.2,0.2,0.5,0.4,0.7,0.6c0.1,0,0.1,0.2,0.1,0.2C10.2,29.8,10.1,29.8,10.1,29.8z
				 M27.5,28.5C27.5,28.5,27.5,28.4,27.5,28.5c-0.2-0.1-0.2-0.2-0.2-0.3c0.2-0.3,0.3-0.6,0.3-0.9c0-0.1,0.1-0.2,0.2-0.1
				c0.1,0,0.2,0.1,0.1,0.2c0,0.3-0.2,0.7-0.3,1C27.6,28.4,27.6,28.5,27.5,28.5z M8.7,28.4c-0.1,0-0.1,0-0.2-0.1
				c-0.2-0.3-0.3-0.6-0.3-1c0-0.1,0.1-0.2,0.1-0.2c0.1,0,0.2,0.1,0.2,0.1c0,0.3,0.1,0.6,0.3,0.9C8.9,28.3,8.9,28.4,8.7,28.4
				C8.8,28.4,8.8,28.4,8.7,28.4z M12.4,27.1c-0.1,0-0.1,0-0.1-0.1c-0.2-0.3-0.4-0.5-0.6-0.7c-0.1-0.1-0.1-0.2,0-0.2
				c0.1-0.1,0.2-0.1,0.2,0c0.2,0.2,0.4,0.5,0.6,0.8c0.1,0.1,0,0.2,0,0.2C12.4,27.1,12.4,27.1,12.4,27.1z M23.9,27.1c0,0-0.1,0-0.1,0
				c-0.1-0.1-0.1-0.2,0-0.2c0.2-0.3,0.4-0.5,0.6-0.8c0.1-0.1,0.2-0.1,0.2,0c0.1,0.1,0.1,0.2,0,0.2c-0.2,0.2-0.4,0.4-0.6,0.7
				C24,27.1,23.9,27.1,23.9,27.1z M27.7,26.6c-0.1,0-0.1,0-0.2-0.1c-0.1-0.3-0.3-0.5-0.6-0.6c-0.1-0.1-0.1-0.2,0-0.2
				c0.1-0.1,0.2-0.1,0.2,0c0.3,0.2,0.5,0.5,0.7,0.8C27.9,26.4,27.9,26.5,27.7,26.6C27.8,26.6,27.7,26.6,27.7,26.6z M8.5,26.6
				C8.5,26.6,8.5,26.6,8.5,26.6c-0.2-0.1-0.2-0.2-0.2-0.2c0.1-0.3,0.4-0.6,0.7-0.8c0.1-0.1,0.2,0,0.2,0.1s0,0.2-0.1,0.2
				C9,26,8.8,26.2,8.7,26.5C8.7,26.5,8.6,26.6,8.5,26.6z M11,25.8C11,25.8,10.9,25.8,11,25.8c-0.4-0.2-0.6-0.3-0.9-0.2
				c-0.1,0-0.2-0.1-0.2-0.2c0-0.1,0.1-0.2,0.2-0.2c0.3,0,0.7,0.1,1,0.3c0.1,0,0.1,0.2,0.1,0.2C11.1,25.7,11.1,25.8,11,25.8z
				 M25.3,25.8c-0.1,0-0.1,0-0.1-0.1c0-0.1,0-0.2,0.1-0.2c0.4-0.2,0.7-0.3,1-0.3c0.1,0,0.2,0.1,0.2,0.2c0,0.1-0.1,0.2-0.2,0.2
				C25.9,25.5,25.6,25.6,25.3,25.8C25.3,25.8,25.3,25.8,25.3,25.8z"/>
		</g>
	</g>
</g>
</svg>
