<?xml version="1.0" encoding="utf-8"?>
<!-- Generator: Adobe Illustrator 17.1.0, SVG Export Plug-In . SVG Version: 6.00 Build 0)  -->
<!DOCTYPE svg PUBLIC "-//W3C//DTD SVG 1.1//EN" "http://www.w3.org/Graphics/SVG/1.1/DTD/svg11.dtd">
<svg version="1.1" id="レイヤー_1" xmlns="http://www.w3.org/2000/svg" xmlns:xlink="http://www.w3.org/1999/xlink" x="0px"
	 y="0px" viewBox="0 0 36 36" enable-background="new 0 0 36 36" xml:space="preserve">
<g>
	<circle cx="18" cy="18" r="17.7"/>
	<g>
		<g>
			
				<linearGradient id="SVGID_1_" gradientUnits="userSpaceOnUse" x1="-1633.6152" y1="-174.8395" x2="-1633.6152" y2="-184.7227" gradientTransform="matrix(-1 0 0 -1 -1615.6152 -170.2946)">
				<stop  offset="0" style="stop-color:#4727FF"/>
				<stop  offset="0.2338" style="stop-color:#5D2DFE"/>
				<stop  offset="0.7173" style="stop-color:#953BFD"/>
				<stop  offset="1" style="stop-color:#B844FC"/>
			</linearGradient>
			<path fill="url(#SVGID_1_)" d="M14.6,9.8c0.8,0.8,2.2,4.7,3.4,4.7v0v0c1.1,0,2.6-3.8,3.4-4.7c0.5-0.5,0.6-0.7,0.5-0.9
				c-0.2-0.4-0.9-0.6-1.3-0.8c0,0-0.1-1.6,0.1-2.2c0.2-0.5,0.2-1-0.2-1c-0.5-0.1-1.1,0.5-1.1,1c0,0,0.2-1.4-0.5-1.4
				c-0.5,0-0.7,0.8-0.8,1.2v0v0c-0.1-0.4-0.3-1.2-0.8-1.2c-0.7,0-0.5,1.4-0.5,1.4c0-0.5-0.6-1.1-1.1-1c-0.4,0.1-0.4,0.5-0.2,1
				c0.2,0.5,0.1,2.2,0.1,2.2c-0.5,0.2-1.2,0.3-1.3,0.8C14,9.1,14.2,9.3,14.6,9.8z"/>
			
				<linearGradient id="SVGID_2_" gradientUnits="userSpaceOnUse" x1="-1633.6152" y1="-178.5307" x2="-1633.6152" y2="-181.2122" gradientTransform="matrix(-1 0 0 -1 -1615.6152 -170.2946)">
				<stop  offset="0" style="stop-color:#04163D"/>
				<stop  offset="7.713217e-002" style="stop-color:#031231"/>
				<stop  offset="0.2544" style="stop-color:#020A1B"/>
				<stop  offset="0.4498" style="stop-color:#01040C"/>
				<stop  offset="0.6753" style="stop-color:#000103"/>
				<stop  offset="1" style="stop-color:#000000"/>
			</linearGradient>
			<path fill="url(#SVGID_2_)" d="M17,8.2c0.7,0,0.7,0.3,1,0.3c0.3,0,0.4-0.3,1-0.3c0.7,0,1.2,0.6,1.2,1.3c0,0.7-0.5,1.4-1.4,1.3
				c-0.5,0-0.6-0.2-0.8-0.2c-0.2,0-0.3,0.2-0.8,0.2c-1,0.1-1.4-0.6-1.4-1.3C15.7,8.8,16.3,8.2,17,8.2z"/>
			
				<linearGradient id="SVGID_3_" gradientUnits="userSpaceOnUse" x1="-1633.6152" y1="-178.9772" x2="-1633.6152" y2="-180.9937" gradientTransform="matrix(-1 0 0 -1 -1615.6152 -170.2946)">
				<stop  offset="0" style="stop-color:#F8EFAB"/>
				<stop  offset="9.305060e-003" style="stop-color:#F8EFAC"/>
				<stop  offset="0.2967" style="stop-color:#FBF6D0"/>
				<stop  offset="0.5662" style="stop-color:#FDFBEA"/>
				<stop  offset="0.8084" style="stop-color:#FFFEFA"/>
				<stop  offset="1" style="stop-color:#FFFFFF"/>
			</linearGradient>
			<path fill="url(#SVGID_3_)" d="M17.1,10.7c0.4,0,0.7-0.2,0.9-0.6c0.2,0.3,0.5,0.6,0.9,0.6c0.6,0,1-0.5,1-1c0-0.6-0.5-1-1-1
				c-0.4,0-0.7,0.2-0.9,0.6c-0.2-0.3-0.5-0.6-0.9-0.6c-0.6,0-1,0.5-1,1C16.1,10.2,16.5,10.7,17.1,10.7z"/>
			
				<linearGradient id="SVGID_4_" gradientUnits="userSpaceOnUse" x1="-1634.4425" y1="-179.7809" x2="-1634.4425" y2="-180.902" gradientTransform="matrix(-1 0 0 -1 -1615.6152 -170.2946)">
				<stop  offset="0" style="stop-color:#000000"/>
				<stop  offset="0.3247" style="stop-color:#000103"/>
				<stop  offset="0.5502" style="stop-color:#01040C"/>
				<stop  offset="0.7456" style="stop-color:#020A1B"/>
				<stop  offset="0.9229" style="stop-color:#031231"/>
				<stop  offset="1" style="stop-color:#04163D"/>
			</linearGradient>
			<ellipse fill="url(#SVGID_4_)" cx="18.8" cy="10" rx="0.6" ry="0.6"/>
			
				<linearGradient id="SVGID_5_" gradientUnits="userSpaceOnUse" x1="-1632.7874" y1="-179.7809" x2="-1632.7874" y2="-180.902" gradientTransform="matrix(-1 0 0 -1 -1615.6152 -170.2946)">
				<stop  offset="0" style="stop-color:#000000"/>
				<stop  offset="0.3247" style="stop-color:#000103"/>
				<stop  offset="0.5502" style="stop-color:#01040C"/>
				<stop  offset="0.7456" style="stop-color:#020A1B"/>
				<stop  offset="0.9229" style="stop-color:#031231"/>
				<stop  offset="1" style="stop-color:#04163D"/>
			</linearGradient>
			<ellipse fill="url(#SVGID_5_)" cx="17.2" cy="10" rx="0.6" ry="0.6"/>
		</g>
		<g>
			
				<linearGradient id="SVGID_6_" gradientUnits="userSpaceOnUse" x1="-950.0037" y1="-729.5912" x2="-950.0037" y2="-739.4739" gradientTransform="matrix(-0.4206 0.9073 -0.9073 -0.4206 -1055.4869 567.0231)">
				<stop  offset="0" style="stop-color:#4727FF"/>
				<stop  offset="0.2338" style="stop-color:#5D2DFE"/>
				<stop  offset="0.7173" style="stop-color:#953BFD"/>
				<stop  offset="1" style="stop-color:#B844FC"/>
			</linearGradient>
			<path fill="url(#SVGID_6_)" d="M9.4,17.2c1.1-0.4,5.2-0.1,5.6-1.1l0,0l0,0c0.5-1-2.4-3.9-2.8-5c-0.2-0.6-0.3-0.8-0.6-0.8
				c-0.5,0-0.9,0.5-1.3,0.9c0,0-1.5-0.6-2-1C8,9.8,7.6,9.6,7.4,10c-0.3,0.4,0,1.2,0.5,1.4c0,0-1.2-0.7-1.4-0.1
				c-0.2,0.5,0.4,1,0.8,1.2l0,0h0c-0.4-0.1-1.2-0.3-1.4,0.2c-0.3,0.6,1,1,1,1c-0.5-0.2-1.3,0.1-1.4,0.6c-0.1,0.4,0.3,0.6,0.8,0.7
				c0.6,0.1,2,0.9,2,0.9c0,0.5-0.2,1.2,0.1,1.5C8.5,17.5,8.7,17.4,9.4,17.2z"/>
			
				<linearGradient id="SVGID_7_" gradientUnits="userSpaceOnUse" x1="-950.0036" y1="-733.2827" x2="-950.0036" y2="-735.9644" gradientTransform="matrix(-0.4206 0.9073 -0.9073 -0.4206 -1055.4869 567.0231)">
				<stop  offset="0" style="stop-color:#04163D"/>
				<stop  offset="7.713217e-002" style="stop-color:#031231"/>
				<stop  offset="0.2544" style="stop-color:#020A1B"/>
				<stop  offset="0.4498" style="stop-color:#01040C"/>
				<stop  offset="0.6753" style="stop-color:#000103"/>
				<stop  offset="1" style="stop-color:#000000"/>
			</linearGradient>
			<path fill="url(#SVGID_7_)" d="M9,14.4c0.3-0.6,0.5-0.5,0.7-0.8c0.1-0.3-0.1-0.4,0.2-1c0.3-0.6,1.1-0.9,1.7-0.6
				c0.6,0.3,1.1,1,0.6,1.9c-0.2,0.4-0.5,0.5-0.6,0.6c-0.1,0.2,0,0.4-0.1,0.8c-0.3,0.9-1.2,1.1-1.8,0.8C9,15.8,8.7,15.1,9,14.4z"/>
			
				<linearGradient id="SVGID_8_" gradientUnits="userSpaceOnUse" x1="-950.0039" y1="-733.7288" x2="-950.0039" y2="-735.7455" gradientTransform="matrix(-0.4206 0.9073 -0.9073 -0.4206 -1055.4869 567.0231)">
				<stop  offset="0" style="stop-color:#F8EFAB"/>
				<stop  offset="9.305060e-003" style="stop-color:#F8EFAC"/>
				<stop  offset="0.2967" style="stop-color:#FBF6D0"/>
				<stop  offset="0.5662" style="stop-color:#FDFBEA"/>
				<stop  offset="0.8084" style="stop-color:#FFFEFA"/>
				<stop  offset="1" style="stop-color:#FFFFFF"/>
			</linearGradient>
			<path fill="url(#SVGID_8_)" d="M11.2,15.4c0.2-0.4,0.1-0.8-0.1-1.1c0.4,0,0.7-0.2,0.9-0.6c0.2-0.5,0-1.1-0.5-1.3
				c-0.5-0.2-1.1,0-1.3,0.5c-0.2,0.4-0.1,0.8,0.1,1.1c-0.4,0-0.7,0.2-0.9,0.6c-0.2,0.5,0,1.1,0.5,1.3C10.4,16.1,11,15.9,11.2,15.4z"
				/>
			
				<linearGradient id="SVGID_9_" gradientUnits="userSpaceOnUse" x1="-950.8315" y1="-734.5323" x2="-950.8315" y2="-735.6536" gradientTransform="matrix(-0.4206 0.9073 -0.9073 -0.4206 -1055.4869 567.0231)">
				<stop  offset="0" style="stop-color:#000000"/>
				<stop  offset="0.3247" style="stop-color:#000103"/>
				<stop  offset="0.5502" style="stop-color:#01040C"/>
				<stop  offset="0.7456" style="stop-color:#020A1B"/>
				<stop  offset="0.9229" style="stop-color:#031231"/>
				<stop  offset="1" style="stop-color:#04163D"/>
			</linearGradient>
			<path fill="url(#SVGID_9_)" d="M10.9,13.3c0.1-0.3,0.5-0.4,0.8-0.3c0.3,0.1,0.4,0.5,0.3,0.8c-0.1,0.3-0.5,0.4-0.8,0.3
				C10.9,13.9,10.7,13.6,10.9,13.3z"/>
			
				<linearGradient id="SVGID_10_" gradientUnits="userSpaceOnUse" x1="-949.1757" y1="-734.5328" x2="-949.1757" y2="-735.6542" gradientTransform="matrix(-0.4206 0.9073 -0.9073 -0.4206 -1055.4869 567.0231)">
				<stop  offset="0" style="stop-color:#000000"/>
				<stop  offset="0.3247" style="stop-color:#000103"/>
				<stop  offset="0.5502" style="stop-color:#01040C"/>
				<stop  offset="0.7456" style="stop-color:#020A1B"/>
				<stop  offset="0.9229" style="stop-color:#031231"/>
				<stop  offset="1" style="stop-color:#04163D"/>
			</linearGradient>
			<path fill="url(#SVGID_10_)" d="M10.2,14.8c0.1-0.3,0.5-0.4,0.8-0.3c0.3,0.1,0.4,0.5,0.3,0.8c-0.1,0.3-0.5,0.4-0.8,0.3
				C10.2,15.4,10,15.1,10.2,14.8z"/>
		</g>
		<g>
			
				<linearGradient id="SVGID_11_" gradientUnits="userSpaceOnUse" x1="-360.757" y1="541.5059" x2="-360.757" y2="531.6223" gradientTransform="matrix(0.4206 0.9073 0.9073 -0.4206 -309.6165 567.0231)">
				<stop  offset="0" style="stop-color:#4727FF"/>
				<stop  offset="0.2338" style="stop-color:#5D2DFE"/>
				<stop  offset="0.7173" style="stop-color:#953BFD"/>
				<stop  offset="1" style="stop-color:#B844FC"/>
			</linearGradient>
			<path fill="url(#SVGID_11_)" d="M26.6,17.2c-1.1-0.4-5.2-0.1-5.6-1.1h0h0c-0.5-1,2.4-3.9,2.8-5c0.2-0.6,0.3-0.8,0.6-0.8
				c0.5,0,0.9,0.5,1.3,0.9c0,0,1.5-0.6,2-1c0.4-0.4,0.8-0.5,1-0.2c0.3,0.4,0,1.2-0.5,1.4c0,0,1.2-0.7,1.4-0.1c0.2,0.5-0.4,1-0.8,1.2
				l0,0h0c0.4-0.1,1.2-0.3,1.4,0.2c0.3,0.6-1,1-1,1c0.5-0.2,1.3,0.1,1.4,0.6c0.1,0.4-0.3,0.6-0.8,0.7c-0.6,0.1-2,0.9-2,0.9
				c0,0.5,0.2,1.2-0.1,1.5C27.5,17.5,27.3,17.4,26.6,17.2z"/>
			
				<linearGradient id="SVGID_12_" gradientUnits="userSpaceOnUse" x1="-360.7572" y1="537.8152" x2="-360.7572" y2="535.1328" gradientTransform="matrix(0.4206 0.9073 0.9073 -0.4206 -309.6165 567.0231)">
				<stop  offset="0" style="stop-color:#04163D"/>
				<stop  offset="7.713217e-002" style="stop-color:#031231"/>
				<stop  offset="0.2544" style="stop-color:#020A1B"/>
				<stop  offset="0.4498" style="stop-color:#01040C"/>
				<stop  offset="0.6753" style="stop-color:#000103"/>
				<stop  offset="1" style="stop-color:#000000"/>
			</linearGradient>
			<path fill="url(#SVGID_12_)" d="M27,14.4c-0.3-0.6-0.5-0.5-0.7-0.8c-0.1-0.3,0.1-0.4-0.2-1c-0.3-0.6-1.1-0.9-1.7-0.6
				c-0.6,0.3-1.1,1-0.6,1.9c0.2,0.4,0.5,0.5,0.6,0.6c0.1,0.2,0,0.4,0.1,0.8c0.3,0.9,1.2,1.1,1.8,0.8C27,15.8,27.3,15.1,27,14.4z"/>
			
				<linearGradient id="SVGID_13_" gradientUnits="userSpaceOnUse" x1="-360.7573" y1="537.3683" x2="-360.7573" y2="535.3513" gradientTransform="matrix(0.4206 0.9073 0.9073 -0.4206 -309.6165 567.0231)">
				<stop  offset="0" style="stop-color:#F8EFAB"/>
				<stop  offset="9.305060e-003" style="stop-color:#F8EFAC"/>
				<stop  offset="0.2967" style="stop-color:#FBF6D0"/>
				<stop  offset="0.5662" style="stop-color:#FDFBEA"/>
				<stop  offset="0.8084" style="stop-color:#FFFEFA"/>
				<stop  offset="1" style="stop-color:#FFFFFF"/>
			</linearGradient>
			<path fill="url(#SVGID_13_)" d="M24.8,15.4c-0.2-0.4-0.1-0.8,0.1-1.1c-0.4,0-0.7-0.2-0.9-0.6c-0.2-0.5,0-1.1,0.5-1.3
				c0.5-0.2,1.1,0,1.3,0.5c0.2,0.4,0.1,0.8-0.1,1.1c0.4,0,0.7,0.2,0.9,0.6c0.2,0.5,0,1.1-0.5,1.3C25.6,16.1,25,15.9,24.8,15.4z"/>
			
				<linearGradient id="SVGID_14_" gradientUnits="userSpaceOnUse" x1="-361.5849" y1="536.5648" x2="-361.5849" y2="535.4435" gradientTransform="matrix(0.4206 0.9073 0.9073 -0.4206 -309.6165 567.0231)">
				<stop  offset="0" style="stop-color:#000000"/>
				<stop  offset="0.3247" style="stop-color:#000103"/>
				<stop  offset="0.5502" style="stop-color:#01040C"/>
				<stop  offset="0.7456" style="stop-color:#020A1B"/>
				<stop  offset="0.9229" style="stop-color:#031231"/>
				<stop  offset="1" style="stop-color:#04163D"/>
			</linearGradient>
			<path fill="url(#SVGID_14_)" d="M25.1,13.3C25,13,24.6,12.8,24.4,13c-0.3,0.1-0.4,0.5-0.3,0.8c0.1,0.3,0.5,0.4,0.8,0.3
				C25.1,13.9,25.3,13.6,25.1,13.3z"/>
			
				<linearGradient id="SVGID_15_" gradientUnits="userSpaceOnUse" x1="-359.9293" y1="536.5642" x2="-359.9293" y2="535.4429" gradientTransform="matrix(0.4206 0.9073 0.9073 -0.4206 -309.6165 567.0231)">
				<stop  offset="0" style="stop-color:#000000"/>
				<stop  offset="0.3247" style="stop-color:#000103"/>
				<stop  offset="0.5502" style="stop-color:#01040C"/>
				<stop  offset="0.7456" style="stop-color:#020A1B"/>
				<stop  offset="0.9229" style="stop-color:#031231"/>
				<stop  offset="1" style="stop-color:#04163D"/>
			</linearGradient>
			<path fill="url(#SVGID_15_)" d="M25.8,14.8c-0.1-0.3-0.5-0.4-0.8-0.3c-0.3,0.1-0.4,0.5-0.3,0.8c0.1,0.3,0.5,0.4,0.8,0.3
				C25.8,15.4,26,15.1,25.8,14.8z"/>
		</g>
		<g>
			<linearGradient id="SVGID_16_" gradientUnits="userSpaceOnUse" x1="18.2135" y1="31.0797" x2="18.2135" y2="15.4818">
				<stop  offset="0" style="stop-color:#80FC00"/>
				<stop  offset="0.353" style="stop-color:#B1F900"/>
				<stop  offset="0.789" style="stop-color:#E9F600"/>
				<stop  offset="1" style="stop-color:#FFF500"/>
			</linearGradient>
			<path fill="url(#SVGID_16_)" d="M23.5,22.8c-1.2-1.3-3.5-7.4-5.3-7.4l0,0l0,0c-1.8,0-4,6.1-5.3,7.4c-0.7,0.7-1,1-0.8,1.4
				c0.3,0.7,1.4,1,2.1,1.2c0,0,0.2,2.6-0.1,3.5c-0.3,0.9-0.2,1.5,0.4,1.6c0.7,0.1,1.7-0.7,1.7-1.6c0,0-0.3,2.2,0.8,2.2
				c0.8,0,1.1-1.3,1.2-1.9v0v0c0.1,0.6,0.4,1.9,1.2,1.9c1.1,0,0.8-2.2,0.8-2.2c0,0.9,1,1.7,1.7,1.6c0.6-0.1,0.6-0.8,0.4-1.6
				c-0.3-0.9-0.1-3.5-0.1-3.5c0.7-0.3,1.8-0.6,2.1-1.2C24.5,23.9,24.2,23.6,23.5,22.8z"/>
			<linearGradient id="SVGID_17_" gradientUnits="userSpaceOnUse" x1="18.2134" y1="25.2545" x2="18.2134" y2="21.0212">
				<stop  offset="0" style="stop-color:#3B3D00"/>
				<stop  offset="7.713217e-002" style="stop-color:#2F3100"/>
				<stop  offset="0.2544" style="stop-color:#1A1B00"/>
				<stop  offset="0.4498" style="stop-color:#0C0C00"/>
				<stop  offset="0.6753" style="stop-color:#030300"/>
				<stop  offset="1" style="stop-color:#000000"/>
			</linearGradient>
			<path fill="url(#SVGID_17_)" d="M19.8,25.3c-1,0-1.1-0.4-1.6-0.4c-0.5,0-0.6,0.4-1.6,0.4c-1.1,0-2-1-2-2.1c0-1.1,0.7-2.2,2.3-2.1
				c0.8,0.1,1,0.4,1.3,0.4c0.3,0,0.5-0.3,1.3-0.4c1.5-0.1,2.3,1,2.3,2.1C21.8,24.3,20.9,25.3,19.8,25.3z"/>
			<linearGradient id="SVGID_18_" gradientUnits="userSpaceOnUse" x1="18.2139" y1="24.549" x2="18.2139" y2="21.3666">
				<stop  offset="0" style="stop-color:#F8EFAB"/>
				<stop  offset="9.305060e-003" style="stop-color:#F8EFAC"/>
				<stop  offset="0.2967" style="stop-color:#FBF6D0"/>
				<stop  offset="0.5662" style="stop-color:#FDFBEA"/>
				<stop  offset="0.8084" style="stop-color:#FFFEFA"/>
				<stop  offset="1" style="stop-color:#FFFFFF"/>
			</linearGradient>
			<path fill="url(#SVGID_18_)" d="M19.6,21.4c-0.6,0-1.2,0.4-1.4,0.9c-0.3-0.5-0.8-0.9-1.4-0.9c-0.9,0-1.6,0.7-1.6,1.6
				c0,0.9,0.7,1.6,1.6,1.6c0.6,0,1.2-0.4,1.4-0.9c0.3,0.5,0.8,0.9,1.4,0.9c0.9,0,1.6-0.7,1.6-1.6C21.2,22.1,20.5,21.4,19.6,21.4z"/>
			<linearGradient id="SVGID_19_" gradientUnits="userSpaceOnUse" x1="16.9071" y1="23.2804" x2="16.9071" y2="21.5116">
				<stop  offset="0" style="stop-color:#000000"/>
				<stop  offset="0.3247" style="stop-color:#030300"/>
				<stop  offset="0.5502" style="stop-color:#0C0C00"/>
				<stop  offset="0.7456" style="stop-color:#1A1B00"/>
				<stop  offset="0.9229" style="stop-color:#2F3100"/>
				<stop  offset="1" style="stop-color:#3B3D00"/>
			</linearGradient>
			<ellipse fill="url(#SVGID_19_)" cx="16.9" cy="22.4" rx="0.9" ry="0.9"/>
			<linearGradient id="SVGID_20_" gradientUnits="userSpaceOnUse" x1="19.5203" y1="23.2804" x2="19.5203" y2="21.5116">
				<stop  offset="0" style="stop-color:#000000"/>
				<stop  offset="0.3247" style="stop-color:#030300"/>
				<stop  offset="0.5502" style="stop-color:#0C0C00"/>
				<stop  offset="0.7456" style="stop-color:#1A1B00"/>
				<stop  offset="0.9229" style="stop-color:#2F3100"/>
				<stop  offset="1" style="stop-color:#3B3D00"/>
			</linearGradient>
			<ellipse fill="url(#SVGID_20_)" cx="19.5" cy="22.4" rx="0.9" ry="0.9"/>
		</g>
	</g>
</g>
</svg>
