<?xml version="1.0" encoding="utf-8"?>
<!-- Generator: Adobe Illustrator 17.1.0, SVG Export Plug-In . SVG Version: 6.00 Build 0)  -->
<!DOCTYPE svg PUBLIC "-//W3C//DTD SVG 1.1//EN" "http://www.w3.org/Graphics/SVG/1.1/DTD/svg11.dtd">
<svg version="1.1" id="レイヤー_1" xmlns="http://www.w3.org/2000/svg" xmlns:xlink="http://www.w3.org/1999/xlink" x="0px"
	 y="0px" viewBox="0 0 36 36" enable-background="new 0 0 36 36" xml:space="preserve">
<g>
	<circle cx="18" cy="18" r="17.7"/>
	<g>
		<linearGradient id="SVGID_1_" gradientUnits="userSpaceOnUse" x1="17.5097" y1="28.1426" x2="17.5097" y2="8.7857">
			<stop  offset="0" style="stop-color:#F8EFAB"/>
			<stop  offset="9.305060e-003" style="stop-color:#F8EFAC"/>
			<stop  offset="0.2967" style="stop-color:#FBF6D0"/>
			<stop  offset="0.5662" style="stop-color:#FDFBEA"/>
			<stop  offset="0.8084" style="stop-color:#FFFEFA"/>
			<stop  offset="1" style="stop-color:#FFFFFF"/>
		</linearGradient>
		<path fill="url(#SVGID_1_)" d="M13.9,9.2c4.3-1.1,9.4-0.1,10.9,3.1c1.6,3.3,0.4,5.4-1.3,7.5c0,0-1.9,2.3-1.7,3c0,0-3.4,0.1-5.9,0
			c-0.5-2,1.8-4.5,1.8-4.5c1.3-1.4,0.8-3.1-0.5-3.3c0,0-1.8-0.2-1.8,2.4c0,0-3.6,0.1-5.8,0.1C9.2,14.7,9.4,10.3,13.9,9.2z
			 M21.8,24.3c0,0,0,1.4,0,3.8c0,0-3.5,0-5.9,0c0,0-0.1-1.4-0.1-3.8C15.8,24.3,18.9,24.2,21.8,24.3z"/>
	</g>
</g>
</svg>
